<svg width="139" height="87" viewBox="0 0 139 87" fill="none" xmlns="http://www.w3.org/2000/svg">
<path d="M71.6585 78.1452C69.2379 77.8009 67.1448 76.5634 65.6647 74.6016C65.106 73.8611 64.4698 72.6477 64.1779 71.7662C63.7265 70.4026 63.5262 68.7467 63.6281 67.2219C63.9447 62.489 66.823 58.9474 71.1336 57.9869C71.7088 57.8587 71.932 57.8437 73.2343 57.845C74.8108 57.8461 75.4686 57.9291 76.6716 58.276C77.6752 58.5655 78.8861 59.1294 79.2952 59.4979L79.4347 59.6236V61.954C79.4347 63.4819 79.4128 64.2979 79.371 64.3236C79.336 64.3452 79.1496 64.2192 78.9568 64.0439C76.9824 62.2481 73.5743 61.4906 71.388 62.3616C70.1583 62.8516 69.0686 63.951 68.5251 65.2502C68.1153 66.23 68.0623 66.5377 68.0636 67.9323C68.0647 69.1026 68.0771 69.2434 68.2292 69.8143C68.6708 71.4709 69.7114 72.8126 71.0331 73.4294C71.8711 73.8204 72.203 73.8858 73.3273 73.8816C74.18 73.8783 74.3977 73.8566 74.8774 73.7264L75.4354 73.575L75.4538 72.7436C75.486 71.2827 75.2855 70.3475 74.6672 69.0738C74.4695 68.6666 74.1211 68.0567 73.893 67.7185C73.665 67.3803 73.4868 67.0609 73.497 67.0089C73.5136 66.925 73.8514 66.9166 76.4596 66.9354C78.0788 66.9472 79.4245 66.9696 79.4501 66.9853C79.4757 67.0011 79.4967 69.093 79.4967 71.634V76.254L79.3098 76.3865C79.0425 76.5759 77.7088 77.1961 77.0165 77.4528C76.243 77.7398 75.4423 77.9638 74.7534 78.0862C73.9745 78.2245 72.424 78.254 71.6585 78.1451L71.6585 78.1452ZM90.9984 78.1364C88.8332 77.8094 87.045 76.8486 85.6216 75.2475C83.3531 72.6958 82.4582 69.1639 83.1613 65.538C83.8596 61.9367 86.4269 58.9536 89.6454 58.0037C90.7305 57.6834 92.1947 57.597 93.3282 57.7864C96.0341 58.2384 98.4559 60.0713 99.7984 62.6833C101.46 65.9153 101.4 70.309 99.6531 73.4375C98.3368 75.7946 96.1271 77.4699 93.6026 78.0248C93.1786 78.118 91.3854 78.1949 90.9984 78.1364ZM93.2766 73.5333C94.783 72.9718 95.8489 71.6697 96.3441 69.786C96.5528 68.9923 96.6083 67.563 96.4654 66.6651C95.9729 63.5709 93.6457 61.6083 91.1347 62.1695C89.8207 62.4632 88.7831 63.3423 88.0845 64.754C87.5315 65.8714 87.3307 66.8969 87.3897 68.302C87.4597 69.9676 87.9993 71.3601 88.9727 72.387C89.5949 73.0434 90.1169 73.3706 90.9364 73.618C91.5032 73.7891 92.7073 73.7455 93.2766 73.5333V73.5333ZM22.4341 77.9678C22.4094 77.9038 30.9668 59.1425 31.3109 58.5063C31.382 58.3748 31.4233 58.3675 32.0954 58.3675C32.7627 58.3675 32.8103 58.3762 32.8961 58.5063C32.9463 58.5827 33.5723 59.9641 34.2873 61.5761C40.0268 74.5163 41.4883 77.8367 41.4883 77.9366C41.4883 78.0233 41.4422 78.0514 41.2996 78.0514C40.6788 78.0514 38.6302 77.4181 37.7364 76.9498C37.4179 76.783 36.646 76.314 36.0211 75.9078C35.3961 75.5015 34.6756 75.0559 34.4198 74.9176C33.1377 74.2243 31.0624 73.6598 29.4595 73.5683L28.8084 73.5312L28.4674 74.2291C28.2799 74.6129 27.9985 75.1232 27.8422 75.3631C26.9622 76.7132 25.3688 77.6353 23.3539 77.9605C22.6586 78.0728 22.4751 78.0742 22.4341 77.9682V77.9678ZM33.2627 68.2772C32.6544 66.9007 32.131 65.7824 32.0997 65.7922C32.0191 65.8172 30.3904 69.5592 30.4409 69.6031C30.4638 69.6229 30.7197 69.6882 31.0096 69.7481C31.8075 69.9131 32.8844 70.2379 33.6448 70.5431C34.0199 70.6936 34.3362 70.8085 34.3477 70.7984C34.3593 70.7885 33.871 69.6537 33.2627 68.2772ZM7.23172 77.8558C7.21508 77.8106 7.19416 74.4 7.18525 70.2765C7.17276 64.4921 7.15157 62.7403 7.09252 62.6082C7.05042 62.5141 6.80433 62.1961 6.54565 61.9017C5.69859 60.9374 5.03084 59.7949 4.80278 58.9194C4.62592 58.2405 4.19355 58.3057 8.86565 58.3057C11.2553 58.3057 13.22 58.3325 13.5954 58.3702C17.5441 58.7665 20.4921 60.6972 21.8069 63.7482C22.0936 64.4135 22.2991 65.0869 22.4648 65.904C22.5893 66.5182 22.6069 66.7887 22.6075 68.086C22.6082 69.786 22.5355 70.3169 22.1354 71.5368C21.4668 73.5756 20.2612 75.1406 18.4064 76.3778C17.3907 77.0552 16.2641 77.4948 14.8885 77.7504C14.2275 77.8733 13.9233 77.885 10.7187 77.9104C7.87982 77.933 7.25657 77.9232 7.23172 77.8558V77.8558ZM13.9894 73.4545C16.2165 72.9557 17.5777 71.724 18.1216 69.7155C18.2416 69.2723 18.2621 69.0438 18.2621 68.1477C18.2622 66.9344 18.1564 66.4003 17.7488 65.5561C17.2518 64.5269 16.5363 63.8168 15.4776 63.3022C14.4856 62.82 13.6342 62.6456 12.1294 62.6163L11.2613 62.5995L11.2453 68.0269C11.2365 71.012 11.2441 73.493 11.2622 73.5402C11.3073 73.6578 13.3709 73.5929 13.9894 73.4545L13.9894 73.4545ZM43.7734 77.7787C43.7238 77.6703 43.7199 74.994 43.7592 68.0138L43.8134 58.3983L44.1909 58.3802L44.5684 58.3621L50.1572 63.4555C53.2311 66.2569 55.7608 68.5489 55.7786 68.5489C55.7965 68.5489 55.8112 66.2914 55.8112 63.5323C55.8112 59.7127 55.8289 58.498 55.8856 58.4416C55.9716 58.356 59.9406 58.3342 60.0741 58.4184C60.136 58.4576 60.1486 60.4513 60.1361 68.1824L60.1204 77.8971L59.746 77.9152L59.3715 77.9333L53.7995 72.8246C50.735 70.0148 48.19 67.6937 48.1441 67.6665C48.0745 67.6253 48.0607 68.4531 48.0607 72.6751C48.0607 75.4569 48.0437 77.7768 48.023 77.8305C47.9898 77.9167 47.7456 77.928 45.9136 77.928H43.8418L43.7734 77.7787ZM108.368 77.7896C108.347 77.7132 108.33 74.2562 108.329 70.1073L108.328 62.5639H105.613C103.583 62.5639 102.878 62.5452 102.823 62.4898C102.768 62.4353 102.748 61.9053 102.748 60.4888C102.748 58.8193 102.761 58.5489 102.846 58.4649C102.933 58.3777 103.714 58.368 110.519 58.3688C114.685 58.3693 118.129 58.3921 118.172 58.4193C118.234 58.4579 118.247 58.9162 118.234 60.5009L118.218 62.533L115.474 62.5491L112.731 62.5652V70.1492C112.731 74.3204 112.714 77.7772 112.693 77.8309C112.66 77.9172 112.411 77.9285 110.53 77.9285H108.405L108.368 77.7896ZM121.548 77.8544C121.449 77.756 121.439 58.6709 121.538 58.4873C121.601 58.3705 121.736 58.3679 127.878 58.3689C131.351 58.3693 134.192 58.3939 134.239 58.4238C134.358 58.4985 134.289 58.9116 134.021 59.7248C133.493 61.3324 132.554 62.3007 131.331 62.4981C131.096 62.536 129.852 62.5632 128.341 62.5634L125.752 62.5641V65.8951L128.992 65.9111L132.231 65.9271V69.9997L128.992 70.0156L125.752 70.0317V73.6711H129.468C132.763 73.6711 133.195 73.6821 133.281 73.7681C133.365 73.8521 133.378 74.1213 133.378 75.7776C133.378 76.978 133.355 77.7346 133.314 77.8095C133.252 77.9262 133.121 77.9288 127.436 77.9288C122.997 77.9288 121.605 77.9113 121.548 77.8548L121.548 77.8544ZM35.0749 53.3496C34.9702 53.2734 34.9883 53.2377 35.3337 52.8406C35.9027 52.1862 37.9546 50.2065 38.8221 49.475C41.6373 47.1009 45.0783 44.9233 48.3707 43.4323C52.2287 41.6852 56.2253 40.5023 60.347 39.8878C60.9385 39.7995 61.4808 39.7154 61.5519 39.7007C61.6397 39.6826 61.7532 39.5296 61.9044 39.2253C62.1763 38.6785 62.4902 38.3037 62.8538 38.0916L63.1276 37.9319V37.451C63.1276 37.112 63.0796 36.8088 62.9649 36.4233C62.6491 35.3619 62.5665 35.0076 62.5218 34.5215L62.4766 34.0304L62.2295 34.4513C61.935 34.9529 61.3902 35.5594 60.8895 35.9428C60.2812 36.4086 60.204 36.4281 58.9734 36.4261C56.8888 36.4228 55.1855 36.0681 53.672 35.3219C52.9457 34.9638 52.63 34.7256 52.6615 34.5596C52.6751 34.4879 52.9587 34.3633 53.6105 34.1429C54.8524 33.7229 55.4836 33.4575 56.5483 32.9077C59.805 31.2263 61.9857 28.8256 62.9666 25.8419C63.3435 24.6955 63.5551 23.2756 63.3663 23.1594C63.2568 23.0921 63.161 23.2665 62.9126 23.9857C62.4084 25.4451 61.4848 26.6679 60.1151 27.6895C59.485 28.1595 58.3403 28.8113 58.145 28.8113C58.0175 28.8113 58.0142 28.6384 58.1319 28.1209C58.3039 27.3641 58.3302 26.4632 58.18 26.4678C58.156 26.4685 58.0247 26.6268 57.8883 26.8195C57.5229 27.3357 55.8904 28.982 55.0396 29.6923C53.3236 31.125 51.3985 32.4233 49.8228 33.2108C49.1576 33.5432 48.1962 33.9295 47.9278 33.9722C47.6048 34.0236 47.613 33.9586 48.0267 33.1803C48.7793 31.7648 49.8755 28.9827 50.2222 27.608C50.3249 27.2008 50.4672 26.5621 50.5384 26.1888C50.672 25.4879 50.9118 23.7965 50.8822 23.7638C50.873 23.754 50.6808 23.8845 50.4551 24.0545C50.0169 24.3845 49.5902 24.5578 49.4817 24.4498C49.3819 24.3505 49.4051 22.0293 49.5147 21.1445C49.7556 19.1994 50.2252 17.6418 51.0729 15.9766C52.1903 13.7815 53.8132 12.0139 55.4049 11.2583C56.1044 10.9262 56.4032 10.8551 57.0985 10.8551C57.7441 10.8551 58.1377 10.957 58.7874 11.2922C59.5765 11.6995 60.1661 12.2544 60.4968 12.9012L60.6439 13.1886L60.3291 13.5799C59.5561 14.5407 59.3187 15.4938 59.5896 16.5479C59.7427 17.1435 59.9078 17.4632 60.2512 17.8285C60.6463 18.2489 61.1501 18.4606 61.836 18.4945C62.3503 18.52 63.1511 18.4008 63.3652 18.267C63.4311 18.2258 63.4037 18.0869 63.2281 17.5742C62.9403 16.7338 62.8555 16.1617 62.8997 15.3595C62.9563 14.3342 63.2775 13.2805 63.7888 12.4428L64.0189 12.0658L63.8368 11.9387C63.2665 11.5404 62.3892 10.2996 62.6781 10.2997C62.7037 10.2998 62.8781 10.3605 63.0656 10.4346C63.3282 10.5384 63.5423 10.5704 63.9957 10.5734C64.6554 10.5778 64.7151 10.5559 65.5924 9.98395C66.1999 9.58791 67.1757 9.1186 67.7779 8.93276C68.139 8.82135 68.3886 8.78909 68.894 8.78859C69.4812 8.78799 69.5795 8.80481 69.896 8.95946C70.2996 9.15671 70.6196 9.48259 70.8458 9.92678C70.9643 10.1596 71.061 10.2608 71.2332 10.3324C71.6794 10.518 71.9101 10.8694 71.9707 11.4559C72.0083 11.8197 71.9147 12.5015 71.8132 12.6025C71.7792 12.6364 71.6621 12.5853 71.519 12.4741C70.8481 11.9533 69.8975 12.0587 69.2859 12.7216C69.0692 12.9565 68.7271 13.4965 68.7843 13.5133C68.7935 13.5155 69.0242 13.5286 69.2971 13.541C70.9387 13.6163 72.162 14.7065 72.9187 16.7682C73.0143 17.0286 73.1406 17.4498 73.1995 17.7044C73.3537 18.3711 73.3255 18.3264 73.5442 18.2505C73.844 18.1465 74.3689 17.6283 74.5526 17.2551C74.907 16.5348 74.9659 15.5659 74.7014 14.809C74.5463 14.365 74.1425 13.6812 73.9138 13.4753C73.681 13.2656 73.7572 13.1268 74.4923 12.4214C75.6166 11.3426 76.3858 10.9863 77.7086 10.9318C78.5426 10.8974 79.0454 10.9855 79.8389 11.3051C82.1819 12.2489 84.5222 15.6234 85.4436 19.3863C85.7347 20.575 85.8274 21.3271 85.8651 22.8039C85.9032 24.3027 85.8841 24.4919 85.6941 24.4919C85.5194 24.4919 84.8759 24.1589 84.622 23.937C84.5052 23.835 84.3887 23.7514 84.3632 23.7514C84.3376 23.7514 84.3314 24.2721 84.3494 24.9084C84.3854 26.1865 84.487 26.8736 84.8945 28.5953C85.458 30.9767 85.8764 32.2994 86.4175 33.4111C86.7014 33.9946 86.728 34.0868 86.6294 34.1474C86.5339 34.2061 85.6882 33.8988 85.0012 33.5556C83.6553 32.8835 82.2956 31.9226 80.5579 30.4156C79.4433 29.449 78.1331 27.6323 77.1599 25.7038C76.8771 25.1436 76.8039 25.0392 76.7641 25.1398C76.6849 25.3398 76.6998 26.0784 76.799 26.8699C76.8499 27.2759 76.8918 27.6983 76.892 27.8086C76.8927 27.9887 76.8743 28.0091 76.7131 28.0091C76.4314 28.0091 75.7302 27.7738 75.1874 27.4971C74.8305 27.3152 74.5545 27.1092 74.2034 26.7628C73.9349 26.498 73.7114 26.2814 73.7066 26.2814C73.7019 26.2814 73.7084 26.8785 73.7211 27.6083C73.7748 30.69 73.321 32.9029 72.1215 35.4091C71.6773 36.3372 71.5602 36.7512 71.5602 37.3936V37.7465L72.0097 37.8808C73.1416 38.219 74.0116 38.8451 74.1623 39.43C74.2009 39.5797 74.2419 39.7309 74.2533 39.766C74.2648 39.8011 74.5215 39.8653 74.8238 39.9088C75.5164 40.0084 77.025 40.2969 77.9156 40.5001C84.8403 42.0795 91.0352 45.1394 96.2777 49.5699C97.356 50.4812 99.958 53.0771 99.958 53.2416C99.958 53.4277 99.7019 53.4649 99.1866 53.3537C98.5496 53.2161 97.7773 52.9156 95.4627 51.9047C91.6283 50.23 89.7966 49.505 87.3092 48.6774C75.9198 44.8879 64.2422 44.4758 52.3385 47.4436C48.483 48.4048 45.1671 49.5646 40.0312 51.7482C37.4584 52.842 36.7043 53.1379 36.0668 53.3037C35.4958 53.4521 35.2325 53.4643 35.0749 53.3497L35.0749 53.3496ZM68.5147 39.0872C68.7036 38.6623 69.0028 38.2639 69.2869 38.0591C69.6264 37.8143 69.6469 37.7685 69.6453 37.2565C69.6436 36.7015 69.5195 36.3345 69.1358 35.7496C68.5625 34.8756 68.0542 33.7312 67.8424 32.8375C67.8001 32.6593 67.744 32.5136 67.7175 32.5136C67.6911 32.5136 67.5794 32.7704 67.4694 33.0843C67.2407 33.7366 66.8518 34.5417 66.6124 34.8584C66.5226 34.9771 66.1682 35.4075 65.8249 35.8148C65.4817 36.222 65.1601 36.6524 65.1105 36.7712C65.0608 36.89 65.0198 37.1523 65.0195 37.3541L65.0188 37.7211L65.4949 37.795C66.1412 37.8953 66.6941 38.0869 67.0759 38.3427C67.4206 38.5737 67.5856 38.7707 67.7367 39.1314C67.8284 39.3503 67.8488 39.3628 68.1129 39.3628C68.384 39.3628 68.3958 39.3551 68.5147 39.0872L68.5147 39.0872Z" fill="#8F8F8F"/>
<path d="M71.7773 78.1096C69.1818 77.7609 66.8726 76.3344 65.431 74.1895C63.4758 71.2803 63.096 67.1252 64.4728 63.7081C65.7408 60.5611 68.4154 58.4392 71.7463 57.9376C72.4038 57.8387 74.0037 57.8525 74.8555 57.9646C76.5031 58.1814 78.0411 58.7115 79.1092 59.4307L79.3728 59.6081V61.9191C79.3728 64.4132 79.3734 64.4091 79.058 64.0669C78.5385 63.5031 77.2631 62.7653 76.2016 62.4145C75.247 62.099 74.7268 62.0047 73.7269 61.9659C72.3118 61.9111 71.4808 62.1274 70.4365 62.8226C69.3141 63.5697 68.5374 64.7158 68.1325 66.222C68.0127 66.6679 67.9968 66.878 68.0007 67.9632C68.0048 69.0915 68.0191 69.2491 68.1675 69.8006C68.6307 71.5224 69.61 72.7992 70.9712 73.456C71.8295 73.8701 72.1818 73.9455 73.2654 73.947C74.1996 73.9481 74.7924 73.8599 75.3198 73.6406L75.5285 73.5538V72.7314C75.5285 71.7244 75.4494 71.0629 75.2441 70.3548C74.9965 69.5001 74.3684 68.2565 73.7806 67.4568C73.3565 66.8798 73.1426 66.9192 76.44 66.9659C78.0326 66.9885 79.3581 67.0292 79.3856 67.0565C79.4131 67.0838 79.4284 69.1734 79.4197 71.6998L79.4038 76.2934L78.5305 76.7253C77.1999 77.3834 75.9659 77.8096 74.7845 78.0192C74.0908 78.1422 72.3984 78.1931 71.7773 78.1096L71.7773 78.1096ZM90.6015 78.018C86.9998 77.3912 83.9846 74.238 83.2169 70.2956C82.7232 67.7603 83.0334 65.1243 84.0783 62.975C85.4246 60.2056 87.8203 58.3204 90.5909 57.8502C91.3301 57.7247 92.5584 57.7231 93.3237 57.8469C95.2341 58.155 97.1514 59.2561 98.4607 60.797C100.2 62.8439 101.045 65.4426 100.931 68.3956C100.815 71.4188 99.7733 73.8419 97.7716 75.746C96.5863 76.8735 95.2074 77.6076 93.6027 77.9656C92.98 78.1045 91.2689 78.1346 90.6015 78.0184V78.018ZM93.2766 73.5953C94.8108 73.0245 95.9094 71.6869 96.4049 69.7866C96.6195 68.9638 96.6716 67.5395 96.5201 66.6377C96.2475 65.0157 95.5792 63.7921 94.4879 62.9172C93.7161 62.2985 92.6438 61.9569 91.7003 62.0293C89.0517 62.2326 87.1687 64.9362 87.3314 68.3026C87.4455 70.6662 88.5226 72.5678 90.218 73.3989C90.8704 73.7188 91.2551 73.7943 92.1146 73.771C92.7248 73.7545 92.9338 73.7229 93.2766 73.5953ZM22.5305 77.8206C22.5603 77.6485 31.1901 58.8239 31.3562 58.5686C31.4408 58.4385 31.4895 58.4297 32.1256 58.4297H32.8046L32.8989 58.6112C33.1034 59.0048 41.3846 77.7214 41.4118 77.8514C41.4373 77.9737 41.4157 77.9903 41.232 77.9902C40.6623 77.9902 38.651 77.3606 37.7681 76.9063C37.4782 76.7571 36.683 76.2716 36.001 75.8273C34.2041 74.6569 33.3249 74.2617 31.5677 73.8343C30.8424 73.6578 29.6319 73.4858 29.1158 73.4858H28.7784L28.3679 74.3034C28.1421 74.7531 27.8383 75.2876 27.6927 75.4912C27.0001 76.4599 25.8892 77.2116 24.5155 77.6413C24.018 77.7969 23.0028 77.9903 22.6832 77.9903C22.5187 77.9903 22.5039 77.9738 22.5305 77.8206ZM34.4013 70.7684C34.3171 70.4481 32.1497 65.6517 32.097 65.6692C32.0249 65.6929 30.3067 69.5982 30.3496 69.6408C30.3661 69.6573 30.6819 69.736 31.0512 69.8157C31.9493 70.0095 33.0186 70.3378 33.7378 70.6405C34.4258 70.9301 34.4447 70.9337 34.4013 70.7684ZM7.29226 77.7897C7.27686 77.7473 7.25681 74.3528 7.2477 70.2463C7.23284 63.5494 7.2209 62.7577 7.13173 62.564C7.07706 62.4452 6.83237 62.1294 6.58797 61.8621C6.08865 61.3161 5.58367 60.5853 5.2609 59.9416C5.0239 59.4689 4.78198 58.7487 4.78198 58.5158V58.3681H8.90769C11.3548 58.3681 13.2784 58.3944 13.6355 58.4326C17.2936 58.8249 19.9205 60.4017 21.443 63.1194C21.9329 63.9939 22.3763 65.4499 22.5164 66.6441C22.627 67.5872 22.5632 69.5633 22.396 70.3697C21.8711 72.9025 20.5585 74.8696 18.4572 76.2731C17.1327 77.1577 15.8873 77.5899 14.0516 77.802C13.2073 77.8996 7.32825 77.889 7.29226 77.7898L7.29226 77.7897ZM13.9385 73.5228C14.5989 73.3881 15.4099 73.0894 15.9063 72.7981C16.484 72.4591 17.3421 71.604 17.6391 71.0713C18.3358 69.8217 18.5454 68.067 18.1763 66.5748C18.0179 65.9346 17.5969 65.0614 17.2177 64.5866C16.1412 63.2388 14.3114 62.5292 12.0364 62.5772L11.1994 62.5948L11.1836 68.049C11.1712 72.3202 11.1845 73.5232 11.2447 73.5955C11.3099 73.6736 11.4877 73.6821 12.4076 73.6506C13.0049 73.6302 13.6938 73.5727 13.9385 73.5227L13.9385 73.5228ZM43.8204 77.7701C43.7712 77.6424 43.7723 58.7515 43.8216 58.5686C43.8548 58.4454 43.8985 58.4298 44.2083 58.4298H44.5576L50.138 63.5181C53.2072 66.3166 55.753 68.6074 55.7955 68.6087C55.8563 68.6109 55.876 67.5354 55.8885 63.5359L55.9043 58.4606H60.0586L60.0896 68.0866C60.1067 73.3809 60.1102 77.7486 60.0974 77.7925C60.081 77.8489 59.9676 77.867 59.7107 77.8542L59.3471 77.836L53.7587 72.7145C50.685 69.8977 48.1319 67.584 48.0849 67.5731C48.0131 67.5563 47.9971 68.3668 47.9837 72.6946L47.9678 77.836L45.9132 77.8522C44.0799 77.8667 43.8544 77.8577 43.8205 77.77L43.8204 77.7701ZM108.438 77.8523C108.43 77.8435 108.409 74.3929 108.391 70.1846L108.36 62.5332L105.6 62.5024L102.841 62.4716L102.825 60.5207C102.812 58.9285 102.824 58.5569 102.894 58.4996C102.956 58.4478 104.966 58.4335 110.567 58.445L118.156 58.4607V62.4715L115.428 62.5024L112.7 62.5331L112.669 70.1846L112.638 77.836L110.545 77.8522C109.394 77.861 108.446 77.861 108.438 77.8522V77.8523ZM121.577 77.8258C121.554 77.8032 121.535 73.461 121.535 68.1765C121.535 60.1568 121.549 58.5568 121.62 58.4988C121.681 58.4479 123.389 58.4335 127.96 58.445L134.215 58.4606L134.2 58.7604C134.178 59.1656 133.789 60.3096 133.511 60.7837C132.985 61.6822 132.203 62.2842 131.367 62.4357C131.141 62.4766 129.977 62.5023 128.344 62.5023H125.688L125.704 64.2146L125.721 65.9269L128.961 65.9429L132.202 65.9589L132.186 67.9483L132.169 69.9378L128.945 69.9686L125.721 69.9994L125.704 71.866L125.688 73.7326H129.428C132.254 73.7326 133.186 73.7506 133.242 73.8066C133.297 73.861 133.316 74.3842 133.316 75.7762C133.316 76.8187 133.299 77.7155 133.279 77.7692C133.245 77.8572 132.672 77.8668 127.43 77.8668C124.233 77.8668 121.6 77.8483 121.577 77.8257L121.577 77.8258ZM35.1019 53.2548C35.1019 53.1805 36.4135 51.8121 37.2721 50.9908C43.4075 45.1212 51.9631 41.1016 60.915 39.883L61.7095 39.7748L61.8899 39.3788C62.1465 38.8157 62.4587 38.4199 62.8504 38.1612L63.1897 37.937V37.4536C63.1897 37.1107 63.1422 36.8112 63.0263 36.4233C62.9364 36.1226 62.8093 35.696 62.7439 35.4754C62.6785 35.2548 62.6048 34.7828 62.5802 34.4265L62.5354 33.7785L62.3422 34.1492C61.9288 34.9425 61.157 35.7639 60.4196 36.1952L60.1205 36.3702L58.9424 36.3647C56.8406 36.3559 55.0731 35.9822 53.5923 35.2337C53.1235 34.9967 52.711 34.6931 52.711 34.5849C52.711 34.5283 52.9865 34.4068 53.5016 34.2365C57.2408 33.0001 59.9634 31.127 61.6485 28.6316C62.4204 27.4884 62.9297 26.3463 63.2539 25.0312C63.5377 23.8804 63.5752 23.0722 63.345 23.0722C63.2083 23.0722 63.0974 23.2814 62.8253 24.0516C62.1808 25.8767 60.7108 27.4706 58.7228 28.4999C58.1329 28.8053 58.0826 28.8094 58.1223 28.5486C58.1391 28.4383 58.2008 28.0461 58.2593 27.677C58.3615 27.0328 58.3489 26.3426 58.235 26.3426C58.2088 26.3426 58.0099 26.5717 57.7929 26.8517C55.8709 29.3316 51.5569 32.5395 48.5727 33.7079C48.0183 33.925 47.7507 33.9828 47.7507 33.8855C47.7507 33.8598 47.9408 33.4641 48.1731 33.0062C48.9892 31.3978 49.9438 28.956 50.2853 27.603C50.5987 26.3614 51.0211 23.8136 50.9363 23.6769C50.9192 23.6494 50.7595 23.7451 50.5813 23.8895C50.1759 24.218 49.721 24.4613 49.5991 24.4148C49.3818 24.3318 49.4225 21.9663 49.6671 20.4714C49.9237 18.9032 50.3373 17.6045 51.0299 16.1921C52.3221 13.5571 54.3914 11.4767 56.1886 11.0059C56.6989 10.8722 57.4897 10.8731 57.9584 11.0081C58.9203 11.2848 59.9963 12.0858 60.3878 12.8167L60.5834 13.1819L60.2646 13.5764C59.5648 14.4421 59.2967 15.3923 59.4846 16.3411C59.6864 17.3606 60.1216 17.9821 60.8862 18.3426C61.28 18.5283 61.3321 18.5368 62.0426 18.5326C62.6095 18.5293 62.8679 18.4998 63.1277 18.4092C63.5304 18.2687 63.5304 18.2686 63.2652 17.5189C63.0075 16.7905 62.9178 16.1655 62.9572 15.3733C63.0077 14.3575 63.3288 13.2978 63.8393 12.4614C64.0616 12.0973 64.1041 11.9654 63.9993 11.9654C63.7744 11.9654 62.6233 10.5861 62.7192 10.4315C62.7405 10.3972 62.8908 10.4261 63.0812 10.5019C63.3272 10.5994 63.5506 10.6318 63.9958 10.6348C64.6554 10.6392 64.7151 10.6173 65.5924 10.0454C66.1986 9.65023 67.1743 9.18063 67.778 8.9935C68.4562 8.78328 69.417 8.7866 69.8542 9.00118C70.2437 9.1919 70.6198 9.57412 70.8047 9.96702C70.9239 10.2202 71.0018 10.2969 71.2696 10.4244C71.5149 10.5412 71.628 10.6435 71.7463 10.8552C71.8832 11.1005 71.9012 11.2058 71.9006 11.7568C71.8997 12.5538 71.8362 12.6583 71.5077 12.4036C70.8627 11.9036 69.8988 12.0033 69.2842 12.6335C69.014 12.9106 68.6816 13.4777 68.737 13.567C68.7571 13.5993 68.9053 13.6108 69.0663 13.5926C69.4618 13.5478 70.1988 13.7104 70.6922 13.9513C71.7404 14.463 72.7128 15.9377 73.1167 17.6283C73.2725 18.2802 73.3106 18.3584 73.4596 18.332C73.6897 18.2912 74.1671 17.9334 74.3846 17.6386C74.7093 17.1983 74.8612 16.7241 74.8951 16.0447C74.9419 15.107 74.7004 14.3589 74.1232 13.6537C73.9163 13.4009 73.8528 13.2765 73.8785 13.1744C73.9336 12.9563 75.0776 11.8946 75.5733 11.6016C76.2675 11.1912 76.8471 11.028 77.7296 10.9942C78.5853 10.9614 79.2215 11.0794 79.9523 11.4061C82.2494 12.4332 84.5465 15.8266 85.4066 19.4631C85.6872 20.6497 85.7694 21.3612 85.8038 22.9022C85.8337 24.2414 85.8275 24.3701 85.7312 24.4069C85.5846 24.4629 85.0506 24.205 84.6581 23.8887C84.3888 23.6718 84.3237 23.6425 84.2921 23.7243C84.271 23.779 84.2693 24.3282 84.2883 24.9447C84.3301 26.3025 84.4452 27 84.9901 29.1971C85.5728 31.5473 85.8368 32.3552 86.3927 33.4896C86.5572 33.8253 86.623 34.0235 86.5832 34.0632C86.4968 34.1492 85.663 33.8348 84.8121 33.3953C82.7554 32.3331 80.1835 30.202 78.9497 28.5376C78.3571 27.7383 77.6631 26.5923 77.1629 25.5874C76.9644 25.1886 76.7829 24.8623 76.7596 24.8623C76.6118 24.8623 76.6475 26.4206 76.8198 27.4876C76.882 27.8729 76.8587 27.9476 76.6769 27.9476C76.4295 27.9476 75.7027 27.6984 75.2098 27.4445C74.6945 27.179 74.0658 26.653 73.8515 26.3078C73.7771 26.188 73.6987 26.1074 73.6773 26.1287C73.6559 26.1499 73.6469 26.8526 73.6574 27.69C73.6958 30.7607 73.2569 32.9068 72.0949 35.3308C71.6015 36.36 71.4691 36.8488 71.51 37.4895C71.529 37.7869 71.5316 37.7903 71.8082 37.8724C72.7952 38.1654 73.5207 38.5631 73.8742 39.0049C73.9746 39.1304 74.0899 39.3799 74.1306 39.5598L74.2046 39.8867L75.192 40.0535C83.507 41.4584 90.8764 44.9029 96.8268 50.1657C97.7757 51.0049 99.9104 53.1737 99.8628 53.2502C99.843 53.2822 99.7138 53.3084 99.5758 53.3084C99.0046 53.3084 98.172 53.0022 95.2147 51.7046C89.8637 49.3566 86.6193 48.2068 82.4355 47.1757C78.9703 46.3217 75.857 45.8377 71.8082 45.5235C70.4408 45.4174 65.358 45.4157 63.9957 45.5213C59.5341 45.8658 56.2728 46.3762 52.4438 47.3293C48.381 48.3405 45.2222 49.4459 39.8308 51.7431C37.7078 52.6477 36.7897 53.0098 36.1562 53.1926C35.7418 53.3122 35.1019 53.3504 35.1019 53.2555L35.1019 53.2548ZM68.6317 38.9928C68.8224 38.5887 69.0487 38.3146 69.5047 37.9353C69.6918 37.7797 69.7001 37.7531 69.7001 37.314C69.7001 36.6988 69.5856 36.3519 69.1642 35.6914C68.6527 34.8895 68.2518 34.0148 67.9834 33.1152C67.8544 32.6825 67.7299 32.3285 67.7068 32.3285C67.6837 32.3285 67.6046 32.5159 67.531 32.745C67.1443 33.9487 66.6977 34.7208 65.7549 35.8148C65.0683 36.6117 64.9673 36.8075 64.9614 37.3536L64.9568 37.7816L65.4553 37.8533C66.4212 37.9922 67.1457 38.3311 67.5008 38.81C67.585 38.9236 67.654 39.0372 67.654 39.0623C67.654 39.0874 67.6812 39.1792 67.7145 39.2663C67.7689 39.4088 67.8074 39.4245 68.102 39.4233L68.429 39.4223L68.6317 38.993L68.6317 38.9928Z" fill="#8F8F8F"/>
<path d="M71.4052 78.0176C70.2458 77.8033 69.2742 77.4457 68.3084 76.878C65.4238 75.1824 63.6857 71.8537 63.6857 68.0248C63.6857 63.1814 66.4837 59.2657 70.7163 58.1856C72.662 57.6891 75.1002 57.8187 77.1926 58.5297C77.754 58.7205 78.9319 59.3057 79.1906 59.5223L79.3727 59.6748V61.9112C79.3727 63.1413 79.3535 64.1668 79.3301 64.1901C79.3066 64.2134 79.1881 64.1376 79.0666 64.0216C78.1314 63.129 76.6339 62.4019 75.0324 62.0627C74.1084 61.867 72.7336 61.8659 72.0252 62.0605C69.2175 62.8311 67.5611 65.6065 67.9672 68.8596C68.2965 71.4974 69.8429 73.3875 72.0872 73.8953C73.0031 74.1026 74.5154 74.0009 75.3649 73.6751L75.5424 73.6071L75.5123 72.3278C75.487 71.2582 75.46 70.9727 75.3473 70.5857C75.0501 69.5655 74.6467 68.7083 74.0033 67.7297C73.785 67.3977 73.6063 67.0989 73.6063 67.0658C73.6063 67.0273 74.6407 67.0115 76.474 67.0217L79.3417 67.0377V76.2882L78.6286 76.6465C77.3768 77.2754 76.1269 77.7223 74.9394 77.9654C74.2332 78.11 72.0768 78.1419 71.4052 78.0177V78.0176ZM91.0294 78.049C87.8208 77.6537 85.0363 75.3448 83.7411 72.0057C83.2941 70.8534 83.0922 69.7815 83.0485 68.3299C82.987 66.2846 83.3188 64.6147 84.1145 62.9649C85.0214 61.0844 86.7721 59.3123 88.4947 58.531C89.0964 58.2581 90.0033 57.9719 90.5954 57.8679C91.269 57.7496 92.7979 57.7635 93.4589 57.8939C96.884 58.57 99.6266 61.2758 100.538 64.8785C100.97 66.5839 101.02 68.7322 100.668 70.4314C99.9644 73.8303 97.6895 76.5514 94.6402 77.6421C93.6304 78.0032 92.0779 78.1782 91.0294 78.049ZM92.7948 73.7627C94.6295 73.376 96.0377 71.7344 96.526 69.4132C96.662 68.7666 96.6776 67.2516 96.5552 66.5748C96.1372 64.2623 94.7411 62.5551 92.8912 62.0944C92.293 61.9454 91.2007 62.0005 90.6424 62.2079C89.437 62.6556 88.4193 63.6695 87.8582 64.9817C87.0752 66.813 87.1017 69.2441 87.9237 70.9897C88.907 73.0781 90.8353 74.1758 92.7948 73.7627ZM40.7517 77.8928C39.7484 77.6716 38.4281 77.2165 37.732 76.8519C37.4564 76.7076 36.708 76.2489 36.0687 75.8327C34.5528 74.8455 33.9457 74.5339 32.819 74.1642C31.5679 73.7538 30.5505 73.5486 29.5479 73.5047L28.7372 73.4691L28.3858 74.191C28.1925 74.588 27.9132 75.0985 27.7651 75.3254C26.9461 76.5805 25.4201 77.4944 23.5778 77.8332C23.0498 77.9304 22.515 77.9592 22.515 77.8906C22.515 77.7902 31.3961 58.5205 31.4614 58.4792C31.5975 58.3931 32.7232 58.4209 32.7994 58.5124C32.889 58.6198 41.3741 77.7452 41.3861 77.8668C41.3984 77.9908 41.2275 77.9978 40.7517 77.8928ZM34.4818 70.8867C34.4818 70.7328 32.1586 65.5868 32.098 65.6066C32.0204 65.6319 30.3275 69.4575 30.3275 69.6076C30.3275 69.6814 30.4027 69.7228 30.5911 69.7527C31.4448 69.8882 33.0253 70.3635 33.9548 70.7643C34.4432 70.9749 34.4818 70.9838 34.4818 70.8867ZM7.34323 77.7897C7.31564 77.7473 7.27911 74.3249 7.26206 70.1845C7.23614 63.8911 7.21684 62.6316 7.14435 62.5046C7.09666 62.4211 6.85057 62.117 6.59748 61.8289C6.02108 61.1728 5.53511 60.4495 5.22099 59.7803C4.93819 59.1779 4.74584 58.5026 4.83247 58.4164C4.91938 58.3299 13.3011 58.394 13.9275 58.4859C17.0655 58.9466 19.2964 60.1346 20.7736 62.132C21.2145 62.7281 21.8146 63.9021 22.049 64.627C22.5767 66.2589 22.709 68.3591 22.3974 70.1549C22.0312 72.2647 20.9642 74.1845 19.4254 75.502C17.7415 76.9437 16.0562 77.605 13.5555 77.8052C12.3969 77.898 7.40556 77.8855 7.34323 77.7897V77.7897ZM13.7725 73.5666C14.5226 73.4459 15.2725 73.1921 15.8733 72.8556C16.5445 72.4796 17.3774 71.6364 17.7212 70.9849C18.5772 69.362 18.6011 67.0413 17.7783 65.4154C17.3053 64.4807 16.5862 63.7649 15.6326 63.2796C14.5971 62.7527 13.7104 62.5625 12.2074 62.5449L11.1993 62.5331V73.64L11.6023 73.6769C12.1513 73.7272 13.0627 73.6813 13.7725 73.5666H13.7725ZM43.8866 77.8265C43.8634 77.8034 43.8444 73.4465 43.8444 68.1446C43.8444 59.4111 43.8537 58.5011 43.9425 58.4671C44.1263 58.3969 44.4365 58.4294 44.5902 58.5351C44.7324 58.6329 46.5387 60.272 53.1604 66.3117C54.5841 67.6103 55.7728 68.6727 55.8021 68.6727C55.9114 68.6727 55.9343 67.7201 55.9347 63.1647L55.9353 58.4897L57.997 58.506L60.0586 58.5222V77.8359L59.79 77.855C59.6185 77.8673 59.4661 77.8382 59.3682 77.7744C59.2839 77.7195 56.7181 75.3853 53.6663 72.5874C50.6143 69.7895 48.0906 67.5003 48.058 67.5003C48.0217 67.5003 47.9953 68.2255 47.9901 69.3669C47.9853 70.3935 47.9644 72.719 47.9436 74.5347L47.9057 77.8359L45.9172 77.8521C44.8236 77.8609 43.9098 77.8499 43.8866 77.8264L43.8866 77.8265ZM108.495 77.8265C108.472 77.8034 108.453 74.3615 108.453 70.1779C108.453 65.9119 108.429 62.5566 108.398 62.5379C108.369 62.5196 107.148 62.503 105.685 62.501C104.223 62.4988 102.991 62.4757 102.948 62.4494C102.888 62.4121 102.874 61.9682 102.887 60.4619L102.903 58.5224H118.156L118.173 60.4815C118.181 61.559 118.181 62.4468 118.173 62.4544C118.164 62.4621 116.915 62.4828 115.397 62.5007L112.638 62.5331L112.607 70.1846L112.576 77.836L110.556 77.8522C109.446 77.861 108.518 77.85 108.495 77.8266L108.495 77.8265ZM121.639 77.8258C121.616 77.8031 121.597 73.4435 121.597 68.1379V58.4913H134.184V58.6648C134.184 58.9134 133.965 59.7103 133.772 60.1675C133.534 60.7273 132.995 61.5206 132.672 61.7833C132.334 62.0596 131.883 62.2898 131.515 62.374C131.349 62.4122 130.149 62.438 128.503 62.4389C126.261 62.44 125.754 62.4557 125.696 62.5251C125.646 62.5849 125.63 63.0963 125.642 64.2683L125.659 65.9267L128.914 65.959C130.704 65.9767 132.176 65.9975 132.185 66.0052C132.194 66.0129 132.194 66.887 132.185 67.9476L132.169 69.8759L128.982 69.8918C126.753 69.903 125.769 69.9286 125.711 69.9766C125.589 70.0774 125.589 73.6236 125.711 73.7244C125.77 73.7729 126.891 73.7979 129.509 73.8092L133.223 73.8251V77.8359L127.452 77.8517C124.278 77.8604 121.662 77.8484 121.639 77.8259L121.639 77.8258ZM35.1639 53.219C35.1639 53.04 37.4661 50.745 38.6981 49.6959C44.7255 44.5633 52.1207 41.2394 60.3065 39.9837C60.9885 39.8792 61.6024 39.7811 61.6706 39.766C61.7528 39.7477 61.8312 39.6359 61.9033 39.4337C62.0609 38.9921 62.5233 38.3991 62.8842 38.1758C63.0725 38.0594 63.2072 37.9264 63.2304 37.8342C63.3046 37.5402 63.1929 36.8532 62.9373 36.0307C62.7103 35.3004 62.6746 35.1046 62.6475 34.4418C62.6306 34.0261 62.5942 33.6859 62.5667 33.6859C62.5392 33.6859 62.4448 33.8422 62.357 34.0332C61.9261 34.9698 60.7664 36.1298 60.109 36.2817C59.7817 36.3573 58.226 36.3528 57.4983 36.274C55.7884 36.0892 54.1501 35.586 53.1304 34.9323C52.9344 34.8067 52.7738 34.659 52.7735 34.6042C52.7731 34.5317 52.9465 34.4499 53.4085 34.3048C57.1195 33.1394 60.1078 31.068 61.7792 28.5025C62.6976 27.0929 63.3615 25.2791 63.535 23.7061C63.5685 23.4024 63.5562 23.2893 63.4764 23.1682C63.2867 22.88 63.1179 23.0787 62.8447 23.9115C62.6596 24.4758 62.3361 25.1254 61.9575 25.6933C61.6002 26.2291 60.643 27.2016 60.0274 27.6541C59.2779 28.2051 58.2307 28.7712 58.1357 28.6767C58.1215 28.6626 58.1643 28.3885 58.2308 28.0677C58.3599 27.445 58.392 26.4956 58.2891 26.3428C58.2181 26.2374 58.2574 26.1984 57.6266 27.0011C57.0875 27.6871 55.4401 29.2772 54.4682 30.0497C52.3888 31.7024 50.1719 33.0665 48.5875 33.6682C47.8849 33.9351 47.8127 33.9535 47.8127 33.8654C47.8127 33.8239 47.9774 33.468 48.1788 33.0745C49.0285 31.4141 49.9835 28.945 50.3529 27.4537C50.6884 26.099 51.0767 23.5661 50.9488 23.5661C50.9246 23.5661 50.7675 23.6841 50.5995 23.8284C50.4316 23.9726 50.1474 24.1662 49.968 24.2585C49.4711 24.5144 49.4672 24.5025 49.5076 22.8565C49.5702 20.3103 50.011 18.3812 51.0021 16.3158C52.293 13.6257 54.3883 11.5047 56.2141 11.04C57.0962 10.8155 57.7407 10.8898 58.6324 11.3189C59.4707 11.7224 60.2062 12.4013 60.4566 13.0028C60.5325 13.1851 60.5237 13.2077 60.2454 13.5477C59.686 14.2311 59.4074 14.9624 59.4074 15.7473C59.4074 16.9153 59.9659 17.9555 60.8054 18.3507C61.1942 18.5338 61.9022 18.6462 62.3457 18.5953C62.7355 18.5506 63.4804 18.3404 63.5295 18.2614C63.5493 18.2294 63.4975 18.0423 63.4143 17.8456C62.7022 16.1618 62.8963 13.9899 63.8982 12.4311C64.02 12.2416 64.1197 12.064 64.1197 12.0364C64.1197 12.0089 63.9816 11.8973 63.8128 11.7884C63.4527 11.5562 62.6625 10.5567 62.7613 10.4584C62.7758 10.444 62.9549 10.4885 63.1592 10.5574C63.5978 10.7054 64.2879 10.7302 64.6467 10.6109C64.7831 10.5655 65.1738 10.3498 65.5148 10.1315C66.6008 9.43631 67.6095 9.01292 68.5017 8.87791C69.5052 8.72605 70.3044 9.09891 70.7471 9.92552C70.9027 10.2161 70.9997 10.3226 71.1745 10.3953C71.681 10.6059 71.8668 10.955 71.8688 11.6993C71.8696 11.9771 71.8428 12.2761 71.8093 12.3638L71.7484 12.5233L71.4981 12.3429C70.8115 11.8479 69.8515 11.9833 69.2209 12.6641C68.9511 12.9554 68.6242 13.5277 68.6901 13.5933C68.7113 13.6143 68.9403 13.632 69.1989 13.6324C70.1266 13.6335 70.8102 13.925 71.5041 14.614C72.2538 15.3585 72.7362 16.2882 73.1068 17.7028C73.3009 18.4439 73.3413 18.477 73.7559 18.2352C74.5656 17.7629 75.0349 16.7288 74.949 15.6062C74.8917 14.858 74.6068 14.1755 74.0943 13.5589C73.9623 13.4001 73.8543 13.2448 73.8543 13.2139C73.8543 13.099 75.2005 11.8596 75.5594 11.6439C77.5575 10.4435 80.0577 10.9231 81.9082 12.8619C83.4192 14.4449 84.6898 16.8073 85.2972 19.1632C85.6394 20.4902 85.7732 21.5549 85.7822 23.023C85.7872 23.8295 85.7665 24.3236 85.7261 24.364C85.6311 24.4588 84.9547 24.1207 84.6138 23.808C84.458 23.6651 84.3101 23.5684 84.2852 23.5932C84.2603 23.618 84.2438 24.1149 84.2485 24.6975C84.2583 25.9212 84.3779 26.7886 84.765 28.4409C85.3298 30.8525 85.7601 32.2315 86.3256 33.4428C86.4677 33.7471 86.5666 34.0135 86.5453 34.0347C86.489 34.0907 85.6219 33.7728 85.0461 33.4851C83.7257 32.8253 82.3143 31.8269 80.6191 30.3538C79.4731 29.3579 78.1489 27.5002 77.1329 25.4633C76.9508 25.0982 76.7734 24.8089 76.7387 24.8204C76.6316 24.8558 76.6311 26.3583 76.738 27.1272C76.7916 27.5125 76.8186 27.8548 76.7981 27.8878C76.7281 28.0005 75.8175 27.7247 75.1894 27.4004C74.7278 27.1621 74.0654 26.5902 73.8508 26.2448C73.779 26.1291 73.6981 26.0344 73.6711 26.0344C73.644 26.0344 73.6249 26.8188 73.6287 27.7776C73.641 30.9482 73.2227 32.9358 72.0262 35.3914C71.5881 36.2904 71.4807 36.7044 71.5097 37.382L71.5292 37.8387L71.9632 37.956C72.7887 38.1791 73.5854 38.6534 73.9197 39.1206C73.992 39.2215 74.0699 39.4351 74.0929 39.595L74.1347 39.8859L75.2811 40.0778C83.5122 41.4556 90.9107 44.9228 96.8307 50.1766C97.8667 51.0959 99.834 53.087 99.834 53.2161C99.834 53.2827 99.7636 53.3081 99.5794 53.3081C99.0332 53.3081 98.1886 53.0046 95.7107 51.9179C90.306 49.5475 87.4548 48.5006 83.5404 47.4493C73.616 44.7839 62.9178 44.7317 52.556 47.2983C48.4321 48.3197 45.23 49.4375 39.8141 51.7461C36.8371 53.0151 36.0201 53.3081 35.4586 53.3081C35.2429 53.3081 35.1638 53.2842 35.1638 53.2189L35.1639 53.219ZM68.6099 39.1312C68.7837 38.7031 69.0555 38.3321 69.349 38.1223C69.6593 37.9004 69.7558 37.7057 69.7585 37.2957C69.7623 36.7279 69.6086 36.3101 69.1159 35.5499C68.5908 34.7395 68.2238 33.8906 67.9383 32.8255C67.8614 32.5389 67.7702 32.295 67.7355 32.2835C67.7007 32.272 67.5674 32.562 67.4391 32.928C67.0697 33.9821 66.6767 34.6718 65.971 35.5043C65.6286 35.9083 65.2824 36.325 65.2017 36.4303C65.0099 36.6806 64.8494 37.292 64.8981 37.587C64.9312 37.7871 64.9612 37.8201 65.1324 37.8449C66.0405 37.9759 66.2802 38.0385 66.7279 38.2615C67.2625 38.5278 67.5321 38.7974 67.6477 39.1812L67.7209 39.4245L68.106 39.4243L68.491 39.4241L68.6099 39.1312L68.6099 39.1312Z" fill="#8F8F8F"/>
<path d="M71.4052 78.0176C70.2458 77.8033 69.2742 77.4457 68.3084 76.878C65.4238 75.1824 63.6857 71.8537 63.6857 68.0248C63.6857 63.1814 66.4837 59.2657 70.7163 58.1856C72.662 57.6891 75.1002 57.8187 77.1926 58.5297C77.754 58.7205 78.9319 59.3057 79.1906 59.5223L79.3727 59.6748V61.9112C79.3727 63.1413 79.3535 64.1668 79.3301 64.1901C79.3066 64.2134 79.1881 64.1376 79.0666 64.0216C78.1314 63.129 76.6339 62.4019 75.0324 62.0627C74.1084 61.867 72.7336 61.8659 72.0252 62.0605C69.2175 62.8311 67.5611 65.6065 67.9672 68.8596C68.2965 71.4974 69.8429 73.3875 72.0872 73.8953C73.0031 74.1026 74.5154 74.0009 75.3649 73.6751L75.5424 73.6071L75.5123 72.3278C75.487 71.2582 75.46 70.9727 75.3473 70.5857C75.0501 69.5655 74.6467 68.7083 74.0033 67.7297C73.785 67.3977 73.6063 67.0989 73.6063 67.0658C73.6063 67.0273 74.6407 67.0115 76.474 67.0217L79.3417 67.0377V76.2882L78.6286 76.6465C77.3768 77.2754 76.1269 77.7223 74.9394 77.9654C74.2332 78.11 72.0768 78.1419 71.4052 78.0177V78.0176ZM91.0294 78.049C87.8208 77.6537 85.0363 75.3448 83.7411 72.0057C83.2941 70.8534 83.0922 69.7815 83.0485 68.3299C82.987 66.2846 83.3188 64.6147 84.1145 62.9649C85.0214 61.0844 86.7721 59.3123 88.4947 58.531C89.0964 58.2581 90.0033 57.9719 90.5954 57.8679C91.269 57.7496 92.7979 57.7635 93.4589 57.8939C96.884 58.57 99.6266 61.2758 100.538 64.8785C100.97 66.5839 101.02 68.7322 100.668 70.4314C99.9644 73.8303 97.6895 76.5514 94.6402 77.6421C93.6304 78.0032 92.0779 78.1782 91.0294 78.049ZM92.7948 73.7627C94.6295 73.376 96.0377 71.7344 96.526 69.4132C96.662 68.7666 96.6776 67.2516 96.5552 66.5748C96.1372 64.2623 94.7411 62.5551 92.8912 62.0944C92.293 61.9454 91.2007 62.0005 90.6424 62.2079C89.437 62.6556 88.4193 63.6695 87.8582 64.9817C87.0752 66.813 87.1017 69.2441 87.9237 70.9897C88.907 73.0781 90.8353 74.1758 92.7948 73.7627ZM40.7517 77.8928C39.7484 77.6716 38.4281 77.2165 37.732 76.8519C37.4564 76.7076 36.708 76.2489 36.0687 75.8327C34.5528 74.8455 33.9457 74.5339 32.819 74.1642C31.5679 73.7538 30.5505 73.5486 29.5479 73.5047L28.7372 73.4691L28.3858 74.191C28.1925 74.588 27.9132 75.0985 27.7651 75.3254C26.9461 76.5805 25.4201 77.4944 23.5778 77.8332C23.0498 77.9304 22.515 77.9592 22.515 77.8906C22.515 77.7902 31.3961 58.5205 31.4614 58.4792C31.5975 58.3931 32.7232 58.4209 32.7994 58.5124C32.889 58.6198 41.3741 77.7452 41.3861 77.8668C41.3984 77.9908 41.2275 77.9978 40.7517 77.8928ZM34.4818 70.8867C34.4818 70.7328 32.1586 65.5868 32.098 65.6066C32.0204 65.6319 30.3275 69.4575 30.3275 69.6076C30.3275 69.6814 30.4027 69.7228 30.5911 69.7527C31.4448 69.8882 33.0253 70.3635 33.9548 70.7643C34.4432 70.9749 34.4818 70.9838 34.4818 70.8867ZM7.34323 77.7897C7.31564 77.7473 7.27911 74.3249 7.26206 70.1845C7.23614 63.8911 7.21684 62.6316 7.14435 62.5046C7.09666 62.4211 6.85057 62.117 6.59748 61.8289C6.02108 61.1728 5.53511 60.4495 5.22099 59.7803C4.93819 59.1779 4.74584 58.5026 4.83247 58.4164C4.91938 58.3299 13.3011 58.394 13.9275 58.4859C17.0655 58.9466 19.2964 60.1346 20.7736 62.132C21.2145 62.7281 21.8146 63.9021 22.049 64.627C22.5767 66.2589 22.709 68.3591 22.3974 70.1549C22.0312 72.2647 20.9642 74.1845 19.4254 75.502C17.7415 76.9437 16.0562 77.605 13.5555 77.8052C12.3969 77.898 7.40556 77.8855 7.34323 77.7897V77.7897ZM13.7725 73.5666C14.5226 73.4459 15.2725 73.1921 15.8733 72.8556C16.5445 72.4796 17.3774 71.6364 17.7212 70.9849C18.5772 69.362 18.6011 67.0413 17.7783 65.4154C17.3053 64.4807 16.5862 63.7649 15.6326 63.2796C14.5971 62.7527 13.7104 62.5625 12.2074 62.5449L11.1993 62.5331V73.64L11.6023 73.6769C12.1513 73.7272 13.0627 73.6813 13.7725 73.5666H13.7725ZM43.8866 77.8265C43.8634 77.8034 43.8444 73.4465 43.8444 68.1446C43.8444 59.4111 43.8537 58.5011 43.9425 58.4671C44.1263 58.3969 44.4365 58.4294 44.5902 58.5351C44.7324 58.6329 46.5387 60.272 53.1604 66.3117C54.5841 67.6103 55.7728 68.6727 55.8021 68.6727C55.9114 68.6727 55.9343 67.7201 55.9347 63.1647L55.9353 58.4897L57.997 58.506L60.0586 58.5222V77.8359L59.79 77.855C59.6185 77.8673 59.4661 77.8382 59.3682 77.7744C59.2839 77.7195 56.7181 75.3853 53.6663 72.5874C50.6143 69.7895 48.0906 67.5003 48.058 67.5003C48.0217 67.5003 47.9953 68.2255 47.9901 69.3669C47.9853 70.3935 47.9644 72.719 47.9436 74.5347L47.9057 77.8359L45.9172 77.8521C44.8236 77.8609 43.9098 77.8499 43.8866 77.8264L43.8866 77.8265ZM108.495 77.8265C108.472 77.8034 108.453 74.3615 108.453 70.1779C108.453 65.9119 108.429 62.5566 108.398 62.5379C108.369 62.5196 107.148 62.503 105.685 62.501C104.223 62.4988 102.991 62.4757 102.948 62.4494C102.888 62.4121 102.874 61.9682 102.887 60.4619L102.903 58.5224H118.156L118.173 60.4815C118.181 61.559 118.181 62.4468 118.173 62.4544C118.164 62.4621 116.915 62.4828 115.397 62.5007L112.638 62.5331L112.607 70.1846L112.576 77.836L110.556 77.8522C109.446 77.861 108.518 77.85 108.495 77.8266L108.495 77.8265ZM121.639 77.8258C121.616 77.8031 121.597 73.4435 121.597 68.1379V58.4913H134.184V58.6648C134.184 58.9134 133.965 59.7103 133.772 60.1675C133.534 60.7273 132.995 61.5206 132.672 61.7833C132.334 62.0596 131.883 62.2898 131.515 62.374C131.349 62.4122 130.149 62.438 128.503 62.4389C126.261 62.44 125.754 62.4557 125.696 62.5251C125.646 62.5849 125.63 63.0963 125.642 64.2683L125.659 65.9267L128.914 65.959C130.704 65.9767 132.176 65.9975 132.185 66.0052C132.194 66.0129 132.194 66.887 132.185 67.9476L132.169 69.8759L128.982 69.8918C126.753 69.903 125.769 69.9286 125.711 69.9766C125.589 70.0774 125.589 73.6236 125.711 73.7244C125.77 73.7729 126.891 73.7979 129.509 73.8092L133.223 73.8251V77.8359L127.452 77.8517C124.278 77.8604 121.662 77.8484 121.639 77.8259L121.639 77.8258ZM73.6487 40.0969C73.0723 39.7942 71.8102 39.5986 69.7393 39.4912C69.0959 39.4579 68.5544 39.4156 68.536 39.3973C68.4889 39.3504 68.6997 38.8877 68.9119 38.5725C69.0103 38.4263 69.207 38.2237 69.349 38.1222C69.6593 37.9004 69.7558 37.7056 69.7585 37.2956C69.7623 36.7278 69.6086 36.31 69.1159 35.5498C68.5908 34.7394 68.2238 33.8905 67.9383 32.8254C67.8614 32.5388 67.7702 32.2949 67.7355 32.2834C67.7007 32.2719 67.5674 32.5619 67.4391 32.9279C67.0697 33.982 66.6767 34.6718 65.971 35.5043C65.6286 35.9083 65.2824 36.3249 65.2017 36.4302C65.0099 36.6805 64.8494 37.2919 64.8981 37.5869C64.9312 37.7871 64.9612 37.8201 65.1324 37.8448C66.0418 37.976 66.28 38.0384 66.7309 38.263C67.2611 38.5271 67.4862 38.7526 67.6513 39.1854C67.7649 39.4832 67.72 39.835 67.5608 39.8958C67.5123 39.9144 67.3251 39.8582 67.1448 39.7713C66.4742 39.4477 65.4168 39.417 62.9896 39.6506C62.385 39.7088 61.8718 39.7379 61.849 39.7152C61.7757 39.6422 62.0142 39.1259 62.2991 38.7408C62.4585 38.5253 62.7069 38.2854 62.8842 38.1757C63.0725 38.0593 63.2072 37.9263 63.2304 37.8341C63.3046 37.5401 63.1929 36.8531 62.9373 36.0306C62.7103 35.3003 62.6746 35.1045 62.6475 34.4417C62.6306 34.026 62.5942 33.6858 62.5667 33.6858C62.5392 33.6858 62.4448 33.8421 62.357 34.0331C61.9261 34.9697 60.7664 36.1297 60.109 36.2816C59.7817 36.3572 58.226 36.3527 57.4983 36.2739C55.7884 36.0891 54.1501 35.5859 53.1304 34.9322C52.9344 34.8066 52.7738 34.6589 52.7735 34.604C52.7731 34.5316 52.9465 34.4499 53.4085 34.3047C57.1195 33.1393 60.1078 31.0679 61.7792 28.5024C62.6976 27.0928 63.3615 25.279 63.535 23.706C63.5685 23.4023 63.5562 23.2892 63.4764 23.1681C63.2867 22.8799 63.1179 23.0786 62.8447 23.9114C62.6596 24.4757 62.3361 25.1253 61.9575 25.6932C61.6002 26.229 60.643 27.2015 60.0274 27.654C59.2779 28.205 58.2307 28.7711 58.1357 28.6766C58.1215 28.6625 58.1643 28.3884 58.2308 28.0676C58.3599 27.4449 58.392 26.4955 58.2891 26.3427C58.2181 26.2373 58.2574 26.1983 57.6266 27.001C57.0875 27.687 55.4401 29.2771 54.4682 30.0496C52.3888 31.7023 50.1719 33.0664 48.5875 33.6681C47.8849 33.935 47.8127 33.9534 47.8127 33.8653C47.8127 33.8238 47.9774 33.4679 48.1788 33.0744C49.0285 31.414 49.9835 28.9449 50.3529 27.4536C50.6884 26.099 51.0767 23.5661 50.9488 23.5661C50.9246 23.5661 50.7675 23.6841 50.5995 23.8284C50.4316 23.9726 50.1474 24.1662 49.968 24.2585C49.4711 24.5144 49.4672 24.5025 49.5076 22.8565C49.5702 20.3103 50.011 18.3812 51.0021 16.3158C52.293 13.6257 54.3883 11.5047 56.2141 11.04C57.0962 10.8155 57.7407 10.8898 58.6324 11.3189C59.4707 11.7224 60.2062 12.4013 60.4566 13.0028C60.5325 13.1851 60.5237 13.2077 60.2454 13.5477C59.686 14.2311 59.4074 14.9624 59.4074 15.7473C59.4074 16.9153 59.9659 17.9555 60.8054 18.3507C61.1942 18.5338 61.9022 18.6462 62.3457 18.5953C62.7355 18.5506 63.4804 18.3404 63.5295 18.2614C63.5493 18.2294 63.4975 18.0423 63.4143 17.8456C62.7022 16.1618 62.8963 13.9899 63.8982 12.4311C64.02 12.2416 64.1197 12.064 64.1197 12.0364C64.1197 12.0089 63.9816 11.8973 63.8128 11.7884C63.4527 11.5562 62.6625 10.5567 62.7613 10.4584C62.7758 10.444 62.9549 10.4885 63.1592 10.5574C63.5978 10.7054 64.2879 10.7302 64.6467 10.6109C64.7831 10.5655 65.1738 10.3498 65.5148 10.1315C66.6008 9.43631 67.6095 9.01292 68.5017 8.87791C69.5052 8.72605 70.3044 9.09891 70.7471 9.92552C70.9027 10.2161 70.9997 10.3226 71.1745 10.3953C71.681 10.6059 71.8668 10.955 71.8688 11.6993C71.8696 11.9771 71.8428 12.2761 71.8093 12.3638L71.7484 12.5233L71.4981 12.3429C70.8115 11.8479 69.8515 11.9833 69.2209 12.6641C68.9511 12.9554 68.6242 13.5277 68.6901 13.5933C68.7113 13.6143 68.9403 13.632 69.1989 13.6324C70.1266 13.6335 70.8102 13.925 71.5041 14.614C72.2538 15.3585 72.7362 16.2882 73.1068 17.7028C73.3009 18.4439 73.3413 18.477 73.7559 18.2352C74.5656 17.7629 75.0349 16.7288 74.949 15.6062C74.8917 14.858 74.6068 14.1755 74.0943 13.5589C73.9623 13.4001 73.8543 13.2448 73.8543 13.2139C73.8543 13.099 75.2005 11.8596 75.5594 11.6439C77.5575 10.4435 80.0577 10.9231 81.9082 12.8619C83.4192 14.4449 84.6898 16.8073 85.2972 19.1632C85.6394 20.4902 85.7732 21.5549 85.7822 23.023C85.7872 23.8295 85.7665 24.3236 85.7261 24.364C85.6311 24.4588 84.9547 24.1207 84.6138 23.808C84.458 23.6651 84.3101 23.5684 84.2852 23.5932C84.2603 23.618 84.2438 24.1149 84.2485 24.6975C84.2583 25.9212 84.3779 26.7886 84.765 28.4409C85.3298 30.8525 85.7601 32.2315 86.3256 33.4428C86.4677 33.7471 86.5666 34.0135 86.5453 34.0347C86.489 34.0907 85.6219 33.7728 85.0461 33.4851C83.7257 32.8253 82.3143 31.8269 80.6191 30.3538C79.4731 29.3579 78.1489 27.5002 77.1329 25.4633C76.9508 25.0982 76.7734 24.8089 76.7387 24.8204C76.6316 24.8558 76.6311 26.3583 76.738 27.1272C76.7916 27.5125 76.8186 27.8548 76.7981 27.8878C76.7281 28.0005 75.8175 27.7247 75.1894 27.4004C74.7278 27.1621 74.0654 26.5902 73.8508 26.2448C73.779 26.1291 73.6981 26.0344 73.6711 26.0344C73.644 26.0344 73.6249 26.8188 73.6287 27.7776C73.641 30.9482 73.2227 32.9358 72.0262 35.3914C71.5881 36.2904 71.4807 36.7044 71.5097 37.382L71.5292 37.8387L71.9632 37.956C72.8698 38.201 73.7705 38.778 74.001 39.2613C74.1254 39.5222 74.1485 40.0043 74.0427 40.1312C73.9441 40.2494 73.9383 40.2489 73.6487 40.0969Z" fill="#8F8F8F"/>
<path d="M72.1183 78.0726C69.1826 77.7843 66.7054 76.208 65.1699 73.6512C64.5452 72.6109 64.0295 71.0989 63.8384 69.7473C63.7136 68.8647 63.7152 67.238 63.8418 66.338C64.3796 62.5135 66.7367 59.5198 70.0912 58.4007C71.0106 58.094 71.6443 57.9909 72.8319 57.9546C75.2076 57.882 77.4461 58.4196 79.0163 59.4397L79.3108 59.631V64.1805L78.9543 63.8752C77.0374 62.2336 73.9524 61.4538 71.8439 62.078C69.6454 62.7289 68.0978 64.7845 67.9087 67.305C67.8519 68.0628 67.9309 69.1032 68.0961 69.7708C68.3804 70.9203 68.8596 71.7909 69.6345 72.5662C70.2493 73.1812 70.7892 73.5168 71.6316 73.8075C72.1934 74.0013 72.2431 74.0075 73.2344 74.0089C74.1112 74.01 74.34 73.9894 74.8344 73.8638C75.1516 73.7831 75.4516 73.677 75.5009 73.6279C75.6266 73.5028 75.6234 71.9027 75.4959 71.1645C75.3037 70.051 74.821 68.9076 74.0459 67.7295C73.7151 67.2267 73.63 67.0556 73.6979 67.0297C73.7473 67.0108 75.0374 67.0187 76.5648 67.0473L79.3418 67.0993V76.2316L78.6597 76.5844C76.447 77.729 74.0868 78.2659 72.1183 78.0726L72.1183 78.0726ZM90.8209 77.9882C88.0161 77.5489 85.5781 75.6951 84.2098 72.9613C82.2283 69.0026 82.8313 63.908 85.659 60.7155C86.9142 59.2984 88.5375 58.3457 90.3666 57.9527C90.7526 57.8697 91.1499 57.8442 92.0216 57.846C93.0578 57.8482 93.2336 57.8646 93.8408 58.0158C97.4147 58.9059 99.9844 61.8293 100.714 65.8343C100.891 66.8119 100.907 68.8269 100.743 69.8143C100.531 71.0993 100.245 72.0092 99.7363 73.0137C98.452 75.5522 96.2518 77.3029 93.5965 77.8992C93.0848 78.0141 91.343 78.0699 90.8209 77.9882L90.8209 77.9882ZM92.9206 73.7542C94.306 73.4468 95.578 72.2443 96.2068 70.6475C96.5655 69.7367 96.6377 69.2885 96.6393 67.9632C96.6411 66.5689 96.5726 66.1436 96.1929 65.1887C95.8608 64.3535 95.5211 63.8265 94.9356 63.2379C94.4963 62.7963 94.3103 62.6597 93.8195 62.4186C92.5761 61.8078 91.3722 61.793 90.1925 62.3743C88.7983 63.0611 87.8046 64.4676 87.3992 66.3281C87.2627 66.9542 87.2141 68.2674 87.3028 68.9293C87.6119 71.2359 88.8652 73.0105 90.6372 73.6506C91.3456 73.9065 92.0836 73.94 92.9206 73.7543V73.7542ZM22.5799 77.8515C22.5813 77.8091 24.5725 73.4426 27.0047 68.1483L31.4268 58.5224L32.077 58.5049C32.549 58.4923 32.7448 58.5093 32.7914 58.5666C32.8588 58.6498 41.3643 77.8201 41.3643 77.8888C41.3643 77.9719 41.0323 77.9216 40.2354 77.7177C38.5769 77.2934 37.8873 76.9765 36.1263 75.8298C34.2634 74.6167 33.3632 74.2052 31.6668 73.7914C30.4613 73.4974 28.9534 73.3326 28.7382 73.4714C28.6996 73.4962 28.4873 73.8808 28.2666 74.3257C27.7914 75.2837 27.5689 75.6204 27.1066 76.0811C26.2234 76.9611 24.885 77.5871 23.3522 77.8371C22.6709 77.9482 22.5764 77.95 22.5799 77.8515ZM33.4012 68.2923C32.7651 66.8551 32.219 65.6378 32.1875 65.5872C32.1367 65.5055 32.1205 65.5055 32.0448 65.5879C31.9484 65.6924 30.264 69.5279 30.265 69.6408C30.2657 69.7214 30.3601 69.7572 30.7307 69.8177C31.5298 69.9482 33.0734 70.4209 34.0169 70.8241C34.2556 70.9261 34.4749 70.9861 34.5043 70.9575C34.5339 70.9287 34.0422 69.7408 33.4012 68.2926V68.2923ZM7.35391 77.728C7.3383 77.6856 7.31827 74.2911 7.30935 70.1846C7.29707 64.523 7.27509 62.6781 7.21843 62.5519C7.17734 62.4604 6.9627 62.1892 6.74147 61.9493C6.25269 61.4192 5.74066 60.705 5.40895 60.0907C5.15182 59.6144 4.84399 58.7792 4.84399 58.5577V58.4298H8.92114C12.1299 58.4298 13.1657 58.4493 13.7844 58.5213C17.7987 58.9886 20.5424 60.904 21.8346 64.1413C22.5839 66.0185 22.7378 68.8181 22.2056 70.8923C21.6037 73.2383 20.2104 75.115 18.0878 76.4385C16.9995 77.1171 15.7316 77.5315 14.2023 77.7086C13.1041 77.8358 7.39946 77.852 7.35391 77.728V77.728ZM13.9896 73.5808C15.4424 73.2547 16.5503 72.6246 17.279 71.7101C17.6456 71.2501 18.0796 70.3734 18.2481 69.7527C18.4286 69.0875 18.4474 67.3315 18.2809 66.6759C17.7377 64.5362 16.2939 63.1709 14.0516 62.6764C13.419 62.5369 11.3934 62.4196 11.2149 62.5121C11.1128 62.5651 11.1064 62.8932 11.1064 68.0765C11.1064 72.399 11.1231 73.6018 11.1839 73.6648C11.2927 73.7774 13.3936 73.7145 13.9896 73.5808L13.9896 73.5808ZM43.8959 77.7289C43.8825 77.6861 43.8819 73.34 43.8947 68.0712L43.918 58.4915H44.2251C44.5285 58.4915 44.541 58.4992 45.227 59.1266C45.6091 59.4759 47.7492 61.4261 49.9829 63.4605C52.2166 65.4948 54.4322 67.5137 54.9065 67.9469C55.3807 68.3801 55.8061 68.7345 55.8517 68.7345C55.9201 68.7345 55.9374 67.8414 55.9504 63.6284L55.9663 58.5224H59.9965L60.0122 68.1637L60.0279 77.8052H59.4099L53.7527 72.6214C50.6412 69.7702 48.0668 67.447 48.0316 67.4587C47.9888 67.4729 47.9576 69.1772 47.9368 72.6271L47.9058 77.7743L45.9131 77.7907C44.3503 77.8034 43.9152 77.7899 43.896 77.7289L43.8959 77.7289ZM108.497 77.5438C108.479 77.3991 108.459 73.9625 108.454 69.9069C108.448 65.8514 108.423 62.5126 108.399 62.4876C108.375 62.4625 107.128 62.4347 105.629 62.4258L102.903 62.4097L102.887 60.5206C102.874 58.9803 102.886 58.6185 102.956 58.5612C103.018 58.5093 105.011 58.4951 110.567 58.5066L118.094 58.5223L118.111 60.4808L118.127 62.4393L115.383 62.4554L112.638 62.4715L112.607 70.1229L112.576 77.7744L110.553 77.7906L108.529 77.8068L108.497 77.5438ZM121.639 77.764C121.587 77.7126 121.584 58.7229 121.636 58.5891C121.669 58.501 122.279 58.4914 127.9 58.4914C132.905 58.4914 134.133 58.507 134.157 58.5705C134.224 58.7447 133.869 59.8982 133.559 60.5144C133 61.6231 132.27 62.217 131.27 62.3756C131.039 62.4123 129.752 62.4398 128.247 62.4401L125.626 62.4408L125.643 64.2148L125.659 65.9888L128.9 66.0048L132.14 66.0208L132.124 67.9486L132.107 69.8763L128.883 69.9071L125.659 69.9379L125.643 71.8662L125.626 73.7945H129.366C132.192 73.7945 133.124 73.8126 133.18 73.8686C133.235 73.9228 133.254 74.4324 133.254 75.7764C133.254 76.7849 133.238 77.6541 133.217 77.7078C133.183 77.7958 132.615 77.8054 127.43 77.8054C124.268 77.8054 121.662 77.7869 121.639 77.7643L121.639 77.764ZM73.6488 40.097C73.1079 39.813 71.7937 39.5953 70.1652 39.5199C68.849 39.4589 68.5841 39.4262 68.5841 39.3251C68.5841 39.0438 69.1998 38.1776 69.4576 38.0962C69.6628 38.0314 69.7809 37.7103 69.7746 37.235C69.7676 36.7061 69.6086 36.2251 69.2806 35.7408C68.6981 34.8807 68.3198 34.0478 67.9968 32.9147C67.8769 32.4941 67.7724 32.2359 67.722 32.2359C67.674 32.2359 67.5315 32.5445 67.3738 32.9899C66.9834 34.0921 66.6938 34.5838 65.826 35.6174C65.3069 36.2356 65.028 36.6224 64.9617 36.816C64.8437 37.1608 64.8319 37.7311 64.9414 37.8002C64.984 37.8272 65.2941 37.8956 65.6305 37.9523C66.3454 38.0727 67.0433 38.3836 67.331 38.7097C67.6728 39.0971 67.8096 39.801 67.5615 39.8957C67.5127 39.9143 67.3252 39.8584 67.1449 39.7714C66.4743 39.4479 65.4168 39.4172 62.9896 39.6507C62.3851 39.7089 61.8734 39.7395 61.8526 39.7188C61.7816 39.6481 62.1966 38.8837 62.4707 38.5803C62.621 38.414 62.8455 38.2236 62.9695 38.1571C63.0945 38.0901 63.2111 37.9728 63.231 37.894C63.3155 37.5593 63.2061 36.7317 62.9849 36.0308C62.7166 35.1811 62.6154 34.5973 62.6426 34.0563C62.654 33.8295 62.6357 33.6418 62.6007 33.6243C62.5666 33.6073 62.441 33.7878 62.3216 34.0254C62.2022 34.263 62.017 34.5827 61.9101 34.7359C61.6858 35.0575 60.918 35.7956 60.5416 36.0517C59.7324 36.6021 56.4167 36.3022 54.3397 35.4908C53.6697 35.2291 52.7529 34.7026 52.7875 34.5995C52.7988 34.5657 53.2396 34.3935 53.7671 34.2167C59.1384 32.4162 62.5463 29.0107 63.4358 24.5543C63.6469 23.4969 63.6083 23.0111 63.3133 23.0111C63.1569 23.0111 63.0257 23.2417 62.8123 23.8916C62.2204 25.6945 60.8408 27.2525 58.8634 28.3513C58.513 28.546 58.2105 28.6897 58.1913 28.6706C58.1721 28.6514 58.2018 28.4184 58.2574 28.1528C58.4478 27.2425 58.4453 26.3016 58.2522 26.2376C58.2156 26.2254 58.0467 26.4039 57.8768 26.6341C56.6456 28.3023 53.9829 30.5864 51.4224 32.1709C50.3458 32.8371 48.5822 33.6941 47.9824 33.8426C47.8144 33.8841 47.8213 33.864 48.3246 32.8445C49.0758 31.3227 49.8591 29.3645 50.2313 28.0779C50.6111 26.7649 51.1271 23.6932 50.9907 23.5574C50.9524 23.5193 50.8111 23.6005 50.5964 23.7842C50.1837 24.1374 49.6832 24.4035 49.5956 24.3164C49.4812 24.2025 49.5795 21.356 49.727 20.512C50.1993 17.809 51.2055 15.4955 52.7005 13.6758C53.5229 12.6748 54.7056 11.686 55.5272 11.3126C56.2692 10.9755 57.1954 10.8848 57.9414 11.0764C58.7757 11.2906 59.747 11.964 60.2041 12.6453C60.5026 13.0901 60.5218 13.2455 60.3035 13.4496C60.0511 13.6856 59.726 14.2116 59.5578 14.6564C59.0038 16.1212 59.6696 17.9627 60.927 18.4434C61.5884 18.6963 62.6348 18.6771 63.3323 18.3994C63.6125 18.2878 63.6133 18.2476 63.3502 17.5618C62.7962 16.1176 62.9288 14.3629 63.7054 12.8605C63.8282 12.623 63.9843 12.3448 64.0523 12.2423C64.195 12.0271 64.1786 11.9917 63.8327 11.7687C63.6919 11.678 63.4795 11.4838 63.3606 11.3374C63.0762 10.9868 62.7926 10.551 62.8268 10.517C62.8418 10.5021 63.0297 10.5443 63.2444 10.6108C63.7118 10.7556 64.3143 10.7668 64.6823 10.6375C64.8298 10.5858 65.203 10.3809 65.5116 10.1824C66.2453 9.71044 67.0613 9.30721 67.716 9.09303C68.4432 8.85514 69.3246 8.84003 69.8072 9.05719C70.1841 9.22677 70.5566 9.60402 70.7796 10.042C70.9013 10.2809 70.9857 10.3668 71.1525 10.4216C71.4724 10.5267 71.7229 10.8469 71.8094 11.2614C71.8839 11.6186 71.8449 12.3679 71.7487 12.4271C71.7213 12.4439 71.6274 12.4019 71.5402 12.3336C71.2768 12.1274 70.9638 12.0275 70.5812 12.0275C70.109 12.0275 69.7165 12.1649 69.3873 12.4453C69.0645 12.7203 68.6343 13.3654 68.659 13.5374C68.6755 13.6519 68.726 13.6637 69.2418 13.6745C70.3386 13.6974 71.093 14.091 71.8481 15.0341C72.3782 15.6961 72.9935 17.1057 73.1391 17.9918C73.1623 18.1329 73.2187 18.2993 73.2645 18.3615C73.3446 18.4706 73.3578 18.4697 73.6297 18.3383C74.4842 17.9251 74.9744 17.0375 74.985 15.8841C74.9928 15.0351 74.7524 14.3536 74.1868 13.6211C74.0381 13.4286 73.9164 13.2438 73.9164 13.2105C73.9164 13.1136 74.9733 12.0735 75.2963 11.8526C76.173 11.2529 77.0347 11.0118 78.1327 11.0589C78.9695 11.0947 79.4675 11.2302 80.2249 11.6279C81.1477 12.1125 81.9606 12.8534 82.7958 13.9712C84.4027 16.122 85.4061 18.778 85.6948 21.6446C85.7749 22.44 85.7794 24.2871 85.7013 24.3351C85.5909 24.4031 84.955 24.0668 84.6407 23.7742C84.3828 23.5342 84.3133 23.4965 84.2631 23.5695C84.225 23.6248 84.2125 24.1287 84.2304 24.893C84.265 26.3753 84.3519 26.9099 84.9526 29.3358C85.4288 31.2589 85.8036 32.4173 86.2552 33.3621C86.5419 33.9619 86.5505 33.9945 86.4218 33.994C86.1807 33.9931 84.8982 33.3998 84.0934 32.9168C82.7761 32.1262 80.822 30.5889 79.9841 29.6841C79.0313 28.6552 78.1189 27.3041 77.3009 25.7109C77.0251 25.1738 76.7716 24.7284 76.7375 24.7212C76.7034 24.7135 76.6496 24.9297 76.6178 25.2008C76.5642 25.6592 76.5934 26.189 76.7486 27.5703L76.7859 27.9027L76.5447 27.8578C75.5177 27.6666 74.4673 27.0406 73.9404 26.3058C73.7846 26.0885 73.6342 25.9248 73.6062 25.9421C73.5782 25.9593 73.5706 26.6189 73.5893 27.4078C73.666 30.633 73.2148 32.8756 71.9784 35.4137C71.7032 35.9788 71.5507 36.3774 71.5044 36.6529C71.4267 37.1155 71.4162 37.6951 71.4836 37.7952C71.5087 37.8324 71.7373 37.9252 71.9916 38.0014C72.9639 38.293 73.7502 38.8175 73.9864 39.332C74.116 39.6144 74.1377 40.0435 74.028 40.1527C73.934 40.2462 73.9324 40.246 73.6487 40.097L73.6488 40.097Z" fill="#8F8F8F"/>
<path d="M71.3743 77.9314C69.4875 77.587 67.9919 76.806 66.6587 75.469C65.5639 74.371 64.8544 73.2246 64.3661 71.7645C63.5717 69.3892 63.5608 66.7376 64.3355 64.3838C65.3862 61.1918 67.9104 58.8625 71.0566 58.1817C73.5238 57.6478 76.7066 58.1207 78.7377 59.3231L79.23 59.6145L79.2702 60.4876C79.3204 61.5795 79.3232 64.0448 79.2744 64.0448C79.2543 64.0448 79.0182 63.8699 78.7497 63.6561C77.3223 62.5196 75.3055 61.8244 73.4333 61.8237C71.2169 61.8228 69.3808 63.012 68.4208 65.0701C67.7937 66.4146 67.6664 68.3141 68.0939 69.9473C68.2362 70.4913 68.6545 71.4131 68.9624 71.8615C69.4706 72.6018 70.2574 73.2622 71.0742 73.6342C71.8501 73.9875 72.2783 74.0694 73.3274 74.0649C74.1294 74.0616 74.3424 74.0384 74.8739 73.8973C75.2129 73.8073 75.5198 73.7043 75.5559 73.6683C75.6646 73.5601 75.6232 71.507 75.5009 70.9352C75.2777 69.8924 74.7624 68.7279 74.0462 67.6476L73.6825 67.0992L76.4192 67.0831C77.9243 67.0743 79.1909 67.0809 79.2337 67.0968C79.2955 67.1204 79.3083 68.0698 79.2957 71.6791L79.2798 76.2316L78.8458 76.4612C77.6762 77.0799 76.1917 77.6213 74.9706 77.8745C74.0742 78.0603 72.2395 78.0893 71.3743 77.9315L71.3743 77.9314ZM90.5518 77.8955C88.2624 77.4789 86.1183 75.9839 84.7486 73.8493C83.0235 71.1608 82.6106 67.4347 83.6839 64.2425C84.6401 61.3987 86.7011 59.2033 89.2507 58.3128C90.9473 57.7202 92.8657 57.6987 94.531 58.2536C97.0422 59.0903 99.1623 61.213 100.153 63.8821C101.01 66.1922 101.053 69.3256 100.259 71.6654C99.1454 74.9469 96.4714 77.355 93.3366 77.899C92.6916 78.011 91.1757 78.0091 90.5518 77.8957V77.8955ZM92.867 73.8266C94.5641 73.4283 95.9597 71.9221 96.4865 69.9203C96.8733 68.4507 96.7888 66.6129 96.2716 65.2481C95.4148 62.9869 93.4909 61.671 91.4481 61.9489C89.3692 62.2317 87.8019 63.9797 87.3004 66.5748C87.1854 67.1701 87.2008 68.7791 87.3275 69.4007C87.5931 70.704 88.107 71.7327 88.9156 72.5797C89.5017 73.1937 90.4003 73.6987 91.1845 73.8548C91.594 73.9362 92.4615 73.9217 92.867 73.8266L92.867 73.8266ZM22.6533 77.7683C22.677 77.6855 30.6062 60.3896 31.3997 58.6899C31.4629 58.5546 31.4909 58.5498 32.1191 58.5665L32.7729 58.5839L33.0654 59.2319C33.6672 60.5648 41.3023 77.8127 41.3023 77.8392C41.3023 77.9692 39.7205 77.5835 38.7602 77.2193C37.9645 76.9175 37.3615 76.5906 36.186 75.824C34.4254 74.6757 34.0447 74.4778 32.8388 74.0841C31.9664 73.7992 31.3135 73.6374 30.5753 73.523C29.8209 73.4062 28.8284 73.3429 28.74 73.406C28.7023 73.4328 28.4704 73.85 28.2248 74.3329C27.7023 75.3601 27.3643 75.8307 26.8171 76.2926C25.8554 77.1046 24.3879 77.7055 23.0285 77.8441C22.6462 77.8831 22.6219 77.8782 22.6533 77.7683V77.7683ZM34.571 70.9621C34.6054 70.9067 32.2891 65.6097 32.1815 65.4976C32.1458 65.4603 32.0918 65.4717 32.0351 65.5284C31.9116 65.652 30.1918 69.602 30.2245 69.6868C30.2389 69.7243 30.6099 69.8321 31.0488 69.9265C31.8848 70.1062 33.4043 70.5881 33.9859 70.858C34.3441 71.0242 34.5137 71.0544 34.571 70.962V70.9621ZM7.43366 77.767C7.41606 77.7371 7.38244 74.3666 7.35896 70.277C7.33303 65.7613 7.29237 62.7501 7.25541 62.6087C7.2155 62.4559 7.03567 62.2019 6.7326 61.8703C5.97412 61.0402 5.33188 60.0002 5.03358 59.119C4.96341 58.9117 4.90601 58.6688 4.90601 58.5793V58.4165L9.10677 58.4479C13.3798 58.4799 13.6787 58.4952 14.9506 58.7463C18.424 59.4321 20.9201 61.5144 21.9494 64.5849C22.8063 67.1409 22.6381 70.3279 21.5235 72.6518C20.4054 74.9831 18.0835 76.8354 15.5171 77.4434C14.3927 77.7098 13.8049 77.7506 10.5726 77.7868C8.79962 77.8066 7.45193 77.7981 7.43366 77.767V77.767ZM13.2015 73.73C14.8066 73.5587 15.9904 73.0507 16.9357 72.1278C17.9793 71.1088 18.4528 69.8506 18.445 68.1174C18.4394 66.8769 18.243 66.0736 17.7121 65.1212C17.4115 64.5817 16.5024 63.6713 15.9427 63.349C14.8664 62.7292 13.8467 62.4886 12.2535 62.4785L11.1374 62.4719V73.6967L11.2924 73.7395C11.5334 73.8063 12.5363 73.8014 13.2015 73.7307V73.73ZM43.952 77.7681C43.927 77.7432 43.9065 73.4082 43.9065 68.1349V58.5469L44.2386 58.5654L44.5707 58.584L50.1571 63.6746C53.2296 66.4745 55.7936 68.7653 55.8549 68.7653C55.9611 68.7653 55.967 68.526 55.9821 63.6592L55.998 58.5531H59.9626L59.9802 62.0857C59.9899 64.0287 60.0049 68.3465 60.0136 71.6809L60.0293 77.7434H59.4038L53.7788 72.5852C50.685 69.7482 48.1177 67.4124 48.0736 67.3944C48.0295 67.3764 47.9737 67.3813 47.9496 67.4053C47.9255 67.4293 47.8918 69.7721 47.8748 72.6116L47.8438 77.7743L45.9207 77.7939C44.863 77.8049 43.9771 77.7932 43.952 77.7682V77.7681ZM108.557 77.7648C108.534 77.7417 108.515 74.3038 108.515 70.1249C108.515 64.2976 108.497 62.5097 108.44 62.4529C108.385 62.3975 107.679 62.3789 105.649 62.3789H102.932L102.949 60.4815L102.965 58.584H118.094L118.111 60.4815L118.127 62.3789H115.406C113.199 62.3789 112.671 62.3946 112.615 62.4621C112.565 62.5221 112.541 64.6572 112.53 70.1598L112.514 77.7743L110.556 77.7906C109.48 77.7993 108.58 77.7884 108.557 77.7648ZM121.659 68.1483V58.5531H134.138L134.097 58.8154C134.025 59.2679 133.808 59.9228 133.561 60.4351C133.132 61.3225 132.56 61.9087 131.828 62.2082C131.495 62.3448 131.423 62.3485 128.542 62.3788L125.597 62.4097L125.58 64.1683C125.565 65.7668 125.574 65.9339 125.67 66.004C125.751 66.0633 126.51 66.0811 128.958 66.0811H132.14L132.124 67.9477L132.107 69.8143L128.92 69.8303C126.671 69.8416 125.707 69.8668 125.648 69.9157C125.58 69.9719 125.567 70.3496 125.58 71.9051L125.597 73.8251L129.379 73.8559L133.161 73.8867L133.178 75.815L133.194 77.7433H121.66L121.659 68.1483ZM73.6374 40.0293C73.1046 39.7495 72.1234 39.5769 70.5395 39.4842C68.7874 39.3817 68.6461 39.3652 68.6461 39.2629C68.6461 38.9918 69.1901 38.2646 69.5198 38.0949C69.7588 37.9719 69.8477 37.6578 69.8077 37.0775C69.7706 36.5383 69.6468 36.2161 69.2432 35.6085C68.7056 34.7991 68.2938 33.8533 67.9918 32.7341C67.7657 31.8964 67.7103 31.8989 67.4119 32.7604C66.9463 34.1048 66.7165 34.5041 65.7545 35.641C65.0253 36.5028 64.862 36.8017 64.8172 37.3571C64.7798 37.8219 64.8703 37.9431 65.2558 37.9445C65.8848 37.9467 66.7915 38.2752 67.2119 38.6532C67.5429 38.9509 67.7467 39.5535 67.5962 39.79C67.5494 39.8636 67.4814 39.8515 67.1769 39.7156C66.4404 39.3867 65.401 39.3548 62.9914 39.5871C62.4162 39.6426 61.9308 39.6731 61.9126 39.6551C61.8944 39.637 61.9673 39.4492 62.0745 39.2379C62.2986 38.796 62.7156 38.3263 63.0361 38.1546C63.1578 38.0894 63.2733 37.972 63.2932 37.8933C63.3788 37.554 63.2644 36.7882 63.0057 35.9691C62.7751 35.2389 62.7377 35.0387 62.7027 34.3485C62.68 33.9018 62.6359 33.5569 62.6007 33.5516C62.5666 33.5462 62.3998 33.8038 62.23 34.1232C61.9834 34.5872 61.8026 34.8233 61.331 35.2968C61.0063 35.6228 60.6011 35.9699 60.4306 36.0681L60.1205 36.2467L58.8805 36.2445C57.2523 36.2413 55.9443 36.0315 54.62 35.5608C53.8928 35.3023 52.742 34.678 52.836 34.5929C52.8525 34.5779 53.2567 34.4347 53.7341 34.2746C58.0241 32.8356 61.056 30.423 62.5721 27.2417C63.1433 26.0431 63.5157 24.7666 63.5994 23.7208C63.634 23.2887 63.624 23.2088 63.519 23.0804C63.4297 22.9713 63.3642 22.9448 63.2627 22.9769C63.098 23.0289 62.9831 23.2395 62.7781 23.8648C62.4111 24.9842 61.8805 25.8143 60.9352 26.7474C60.5231 27.1543 60.0085 27.5856 59.6593 27.8169C59.041 28.2265 58.2294 28.6601 58.2294 28.5808C58.2294 28.555 58.2724 28.3117 58.3249 28.0402C58.3774 27.7687 58.4204 27.2808 58.4203 26.956C58.4203 25.9958 58.3415 25.948 57.8439 26.6055C55.9122 29.1584 51.6313 32.3845 48.5801 33.5867C48.269 33.7093 47.9864 33.8096 47.9521 33.8096C47.9179 33.8096 48.0764 33.4417 48.3044 32.992C49.0138 31.593 49.9665 29.205 50.2923 28.0093C50.6577 26.6685 51.152 23.7758 51.0576 23.531C51.0051 23.3948 50.9457 23.4209 50.576 23.7428C50.1929 24.0765 49.7043 24.3589 49.633 24.2879C49.5492 24.2045 49.533 22.808 49.6058 21.9379C49.786 19.7854 50.2359 18.0874 51.0992 16.3017C51.7993 14.8538 52.5565 13.7906 53.619 12.7636C55.422 11.0209 57.0141 10.5806 58.6166 11.3815C59.3889 11.7676 59.971 12.2889 60.2985 12.8878L60.4663 13.1945L60.2478 13.4352C59.5126 14.245 59.1895 15.3123 59.37 16.3344C59.65 17.9195 60.7477 18.8006 62.2818 18.6716C62.8123 18.627 63.5544 18.4124 63.6016 18.29C63.6199 18.2425 63.5512 17.9873 63.4488 17.7227C62.8086 16.0683 62.9772 14.1581 63.9038 12.569C64.0567 12.3068 64.1818 12.0492 64.1818 11.9967C64.1818 11.9442 64.1152 11.876 64.0337 11.8452C63.9522 11.8144 63.7831 11.6996 63.6578 11.5901C63.4138 11.3769 62.8457 10.6217 62.8936 10.5741C62.9094 10.5583 63.0402 10.5868 63.1842 10.6373C63.3281 10.6879 63.6207 10.7471 63.8343 10.7689C64.3571 10.8221 64.7795 10.6932 65.3968 10.292C66.112 9.82724 66.9254 9.41202 67.561 9.18724C68.2743 8.93498 69.1373 8.86943 69.6245 9.03046C70.0399 9.16778 70.4385 9.527 70.684 9.98534C70.8447 10.2854 70.9347 10.381 71.1445 10.4744C71.4597 10.6148 71.6066 10.7705 71.7185 11.0826C71.8054 11.325 71.827 12.0124 71.7556 12.26L71.7153 12.3998L71.4901 12.2473C70.8221 11.7949 69.811 11.9265 69.2137 12.5435C68.9758 12.7893 68.5841 13.4354 68.5841 13.5821C68.5841 13.7063 68.5872 13.7069 69.1157 13.6947C69.6119 13.6832 70.2529 13.8359 70.6967 14.0713C71.7573 14.6338 72.6794 16.1175 73.0775 17.9021C73.217 18.5277 73.268 18.5652 73.6962 18.3567C74.5071 17.9618 75.0325 16.9777 75.0325 15.8534C75.0325 15.0477 74.7842 14.3424 74.253 13.6392C74.102 13.4393 73.9784 13.2564 73.9784 13.2328C73.9784 13.1336 74.4766 12.5951 74.9085 12.2275C76.2594 11.0777 77.8177 10.7778 79.4856 11.3464C81.201 11.9313 82.8246 13.6449 84.1128 16.2302C85.0703 18.1519 85.568 20.0615 85.6951 22.3013C85.7512 23.29 85.7153 24.307 85.6244 24.307C85.471 24.307 84.8876 23.9526 84.628 23.7018C84.1984 23.2868 84.1772 23.334 84.1821 24.6959C84.1877 26.2506 84.3201 27.0467 85.046 29.8913C85.4591 31.5097 85.7405 32.3522 86.1642 33.2388C86.5426 34.0307 86.5385 34.0384 85.8784 33.7727C83.6675 32.8828 80.5544 30.5007 79.1365 28.6141C78.4946 27.7598 77.8919 26.7729 77.3073 25.6185C77.0281 25.0671 76.7666 24.6159 76.7263 24.6157C76.686 24.6156 76.6343 24.6739 76.6115 24.7454C76.5376 24.9772 76.572 26.6051 76.6635 27.2071C76.7125 27.5295 76.7408 27.8063 76.7264 27.8222C76.6709 27.8834 75.8469 27.626 75.3735 27.3995C74.7366 27.0947 74.2952 26.7389 73.9405 26.2443C73.6682 25.8644 73.5853 25.7955 73.5226 25.8965C73.5065 25.9224 73.5149 26.4429 73.541 27.0532C73.681 30.3171 73.1714 32.9376 71.9029 35.4756C71.5426 36.1967 71.4619 36.4654 71.4029 37.1416C71.3447 37.8097 71.391 37.8893 71.9162 38.0238C72.8135 38.2535 73.7427 38.8561 73.9545 39.3456C74.078 39.6309 74.0586 40.1716 73.9253 40.1625C73.9034 40.1614 73.7738 40.1012 73.6374 40.0295L73.6374 40.0293Z" fill="#8F8F8F"/>
<path d="M71.4983 77.9033C68.478 77.371 66.1238 75.552 64.8042 72.7309C63.554 70.0582 63.4923 66.3953 64.6521 63.6991C65.9603 60.6581 68.3565 58.72 71.5293 58.137C72.2943 57.9964 74.0777 57.9992 75.0015 58.1424C76.3955 58.3586 77.5283 58.722 78.5357 59.2763C79.3265 59.7114 79.2488 59.4284 79.2488 61.8711V63.9976L79.0083 63.7814C77.7648 62.6634 75.6709 61.8702 73.7304 61.7821C71.0826 61.6619 68.9469 63.1483 68.1298 65.6801C67.86 66.5159 67.8112 66.8613 67.8114 67.9324C67.8114 68.9916 67.8897 69.5334 68.1615 70.36C68.5404 71.5127 69.348 72.6369 70.2313 73.2418C71.2583 73.9449 72.7758 74.2906 74.0329 74.1077C74.6342 74.0202 75.4638 73.8117 75.5744 73.7203C75.6732 73.6387 75.6825 71.6714 75.5868 71.0793C75.4388 70.1629 74.7999 68.6556 74.1483 67.6853C74.0002 67.4648 73.8579 67.2497 73.8321 67.2073C73.7948 67.146 74.3478 67.1301 76.517 67.1301H79.2488V76.2015L78.413 76.6023C77.0345 77.2635 76.1712 77.5709 75.0224 77.8094C74.2092 77.9783 72.2239 78.0311 71.4983 77.9032V77.9033ZM91.2155 77.9277C87.3859 77.5741 84.1254 74.3249 83.3381 70.0776C83.1714 69.1783 83.1135 67.6307 83.2116 66.6953C83.4761 64.1735 84.4512 62.0682 86.1271 60.4001C87.4281 59.1051 88.8238 58.3488 90.5205 58.0194C91.3245 57.8633 92.7311 57.8795 93.5676 58.0545C96.6196 58.693 99.1359 61.0283 100.205 64.214C100.828 66.0732 100.947 68.4536 100.517 70.5037C100.251 71.7737 99.667 73.1262 98.9352 74.1688C98.4225 74.8993 97.2088 76.0894 96.4964 76.5602C94.8913 77.6208 93.0516 78.0972 91.2155 77.9277V77.9277ZM92.8464 73.8793C95.11 73.3719 96.6428 71.1841 96.7752 68.2717C96.8715 66.1535 96.2037 64.2918 94.9105 63.0736C93.9329 62.1527 92.7678 61.7442 91.5219 61.8856C89.3556 62.1315 87.7021 63.9654 87.2384 66.6365C87.1129 67.3589 87.1442 68.7671 87.3023 69.5193C87.5247 70.5773 87.9433 71.5051 88.5298 72.2404C89.6174 73.6038 91.2724 74.2322 92.8464 73.8793ZM22.7198 77.728C22.7374 77.6856 23.3011 76.4569 23.9726 74.9976C24.6441 73.5382 25.9197 70.7615 26.8071 68.827C28.7431 64.6071 29.8964 62.0953 30.4334 60.9288C30.6522 60.4537 30.9866 59.7238 31.1765 59.3069L31.5219 58.5489L32.1164 58.5664L32.711 58.5839L33.9594 61.3915C34.646 62.9357 36.4433 66.9897 37.9535 70.4005C39.4638 73.8112 40.8181 76.8656 40.9633 77.188L41.2272 77.7742L41.0806 77.7936C40.8929 77.8184 39.688 77.4989 38.9041 77.2165C38.0917 76.9238 37.5128 76.6092 36.1308 75.7093C35.4916 75.293 34.708 74.8159 34.3895 74.6491C33.6783 74.2765 32.2112 73.788 31.1778 73.5798C30.3685 73.4167 28.9587 73.2743 28.7636 73.3359C28.6944 73.3577 28.4888 73.6914 28.2406 74.1847C27.7703 75.1192 27.5736 75.4223 27.1374 75.8845C26.2726 76.8008 25.0308 77.4312 23.5382 77.7118C22.9228 77.8275 22.6766 77.8324 22.7198 77.728V77.728ZM34.6679 70.988C34.6679 70.945 34.3865 70.2747 34.0426 69.4983C33.6987 68.7218 33.1511 67.4826 32.8256 66.7445C32.1976 65.3203 32.1077 65.2042 31.917 65.5721C31.8686 65.6654 31.4471 66.6165 30.9802 67.6855C30.369 69.0851 30.1476 69.6549 30.1892 69.7209C30.221 69.7713 30.3419 69.8324 30.4579 69.8566C31.9726 70.1727 32.8149 70.4295 34.1349 70.9778C34.5022 71.1303 34.6679 71.1335 34.6679 70.9876V70.988ZM7.43994 76.895C7.43541 76.4284 7.41448 73.02 7.39344 69.3207C7.36171 63.7449 7.34043 62.5685 7.26894 62.4406C7.22151 62.3558 7.00904 62.092 6.79677 61.8544C5.99355 60.9554 5.38712 59.9803 5.09543 59.1186C5.02535 58.9116 4.96802 58.6832 4.96802 58.6111V58.4799L9.16879 58.5094C11.873 58.5284 13.5463 58.5644 13.8656 58.6106C17.5834 59.1474 20.0586 60.7364 21.4178 63.4587C22.9428 66.5133 22.7441 70.7647 20.9458 73.5566C19.8905 75.195 18.0491 76.6036 16.1612 77.2166C14.9004 77.626 13.5449 77.7412 9.97484 77.7425L7.44818 77.7435L7.43994 76.895ZM13.9708 73.6685C15.3971 73.3792 16.3182 72.8907 17.1682 71.9726C18.1738 70.8866 18.6697 69.2046 18.4894 67.4914C18.271 65.4153 17.3043 63.9496 15.6017 63.1128C14.5601 62.6009 13.2181 62.3487 11.7575 62.3903L11.0754 62.4097V73.7635L11.3544 73.8049C11.8377 73.8766 13.3277 73.7994 13.9708 73.6685ZM43.9685 68.1803V58.6172L44.1281 58.5774C44.2159 58.5554 44.3503 58.5658 44.4268 58.6006C44.5033 58.6353 45.0802 59.1325 45.7088 59.7054C46.3374 60.2784 47.8562 61.6622 49.0838 62.7805C50.3115 63.8988 52.3148 65.7254 53.5356 66.8397C55.2454 68.4003 55.7866 68.8613 55.8918 68.8464L56.0283 68.8271L56.0442 63.721L56.06 58.6149H59.8842L59.9247 59.4942C59.9469 59.9778 59.9652 64.2649 59.9653 69.021V77.6684L59.8146 77.706C59.5725 77.7665 59.387 77.6575 58.8062 77.114C58.5052 76.8324 57.2268 75.6582 55.9654 74.5048C54.704 73.3513 52.4482 71.2827 50.9526 69.9077C49.457 68.5328 48.1671 67.3818 48.0862 67.3501C48.0052 67.3183 47.9175 67.3137 47.8912 67.3402C47.865 67.3663 47.8361 69.7178 47.827 72.5658L47.8107 77.7439H43.9685V68.1803ZM108.577 70.0942C108.577 62.5948 108.574 62.4437 108.457 62.3811C108.379 62.3398 107.389 62.3172 105.667 62.3172H102.996V58.6148H118.063V62.3172H115.393C113.671 62.3172 112.68 62.3398 112.603 62.3811C112.485 62.4436 112.483 62.5948 112.483 70.0942V77.7435H108.577V70.0942ZM121.763 77.7027C121.74 77.6799 121.722 73.3758 121.722 68.138V58.6149H127.891C133.782 58.6149 134.06 58.6204 134.06 58.7255C134.06 58.9642 133.726 59.9684 133.481 60.466C133.133 61.1732 132.408 61.9214 131.859 62.1389C131.488 62.286 131.481 62.2864 128.563 62.3041C126.218 62.3183 125.626 62.338 125.571 62.4041C125.523 62.4611 125.507 63.0334 125.518 64.2684L125.535 66.0504L128.806 66.0664L132.076 66.0824V69.7836H128.864C126.449 69.7836 125.634 69.8019 125.578 69.8577C125.524 69.9121 125.504 70.4405 125.504 71.8508C125.504 73.2611 125.523 73.7894 125.578 73.8438C125.635 73.8998 126.566 73.918 129.392 73.918H133.132L133.116 75.8154L133.099 77.7128L127.452 77.7286C124.346 77.7374 121.786 77.7253 121.763 77.7028L121.763 77.7027ZM73.5441 39.8874C72.8812 39.6092 71.4733 39.4053 69.6847 39.3283C68.9789 39.2979 68.7081 39.2653 68.7081 39.2107C68.7081 39.0428 69.209 38.3782 69.4706 38.1991C69.7937 37.9778 69.8862 37.7694 69.8862 37.2622C69.8862 36.7609 69.6885 36.185 69.3273 35.6344C68.733 34.7285 68.282 33.6954 68.0227 32.6463C67.8037 31.7602 67.677 31.7969 67.3173 32.8502C66.923 34.0052 66.6178 34.5454 65.8865 35.3829C64.9767 36.4249 64.8217 36.6954 64.7605 37.3477C64.711 37.8748 64.8027 37.972 65.3966 38.0217C66.2642 38.0944 67.1685 38.5288 67.4154 38.9917C67.5488 39.2419 67.5723 39.7331 67.4508 39.7331C67.4073 39.7331 67.3123 39.6918 67.2398 39.6413C66.8188 39.3478 65.0788 39.2792 63.0812 39.4772C62.3304 39.5516 62.0117 39.5632 62.0117 39.5157C62.0117 39.4231 62.4245 38.7469 62.586 38.575C62.6584 38.4979 62.8519 38.3491 63.0162 38.2442C63.1968 38.1289 63.3302 37.9926 63.3537 37.8994C63.437 37.569 63.3196 36.7954 63.0606 35.9691C62.82 35.2013 62.7973 35.0694 62.7705 34.2843C62.7427 33.4675 62.7362 33.4332 62.614 33.4513C62.5234 33.4646 62.4091 33.6233 62.2191 33.9993C61.9106 34.6099 61.3927 35.2514 60.8624 35.6797C60.2665 36.1611 60.2216 36.1759 59.2729 36.2043C57.2904 36.2636 55.1087 35.8305 53.7031 35.0987C53.222 34.8481 52.9077 34.6364 52.96 34.5979C52.9766 34.5858 53.311 34.4705 53.7031 34.3418C56.6963 33.3595 59.1622 31.8441 60.8448 29.9529C62.2717 28.3491 63.2512 26.3047 63.5942 24.2143C63.7522 23.2512 63.6883 22.9185 63.3454 22.9185C63.1081 22.9185 62.9444 23.1584 62.7299 23.8202C62.2227 25.385 61.1351 26.7546 59.5625 27.8089C59.09 28.1256 58.3564 28.5263 58.3184 28.4884C58.3023 28.4725 58.3316 28.2591 58.3833 28.0143C58.4893 27.5131 58.5087 26.4948 58.417 26.2546C58.3126 25.9814 58.1573 26.065 57.7656 26.6054C57.3053 27.2405 55.8768 28.7001 54.9743 29.4574C52.8684 31.2246 50.4855 32.7493 48.6939 33.4759C48.3317 33.6228 48.0299 33.7371 48.0232 33.7299C48.0164 33.7223 48.1974 33.342 48.4253 32.8838C49.4725 30.7783 50.3527 28.306 50.7211 26.4357C50.931 25.3695 51.1657 23.5943 51.1147 23.4584C51.0617 23.3173 50.9034 23.3784 50.5856 23.6627C50.4127 23.8175 50.1478 24.0161 49.997 24.104C49.7695 24.2367 49.7126 24.2492 49.6626 24.1773C49.6256 24.1243 49.615 23.6013 49.6351 22.8259C49.6791 21.1333 49.8768 19.8481 50.3137 18.414C51.4226 14.7743 54.0991 11.604 56.4735 11.1177C56.9096 11.0284 57.053 11.0243 57.4949 11.0884C58.5553 11.2422 59.7268 12.0014 60.2141 12.8506L60.3904 13.1578L60.1526 13.4411C59.8489 13.803 59.5073 14.4323 59.3816 14.8617C59.2569 15.2879 59.2539 16.2079 59.3759 16.6737C59.6261 17.6298 60.1828 18.2843 60.9946 18.5769C61.5367 18.7723 62.5619 18.765 63.1539 18.5615C63.3899 18.4804 63.6094 18.3711 63.6417 18.3185C63.6831 18.2511 63.6355 18.0507 63.4804 17.6384C63.1764 16.8306 63.1061 16.3625 63.144 15.3977C63.1687 14.7669 63.2123 14.4658 63.3415 14.033C63.5185 13.4399 63.8232 12.7614 64.084 12.3796C64.2833 12.0877 64.2931 11.8663 64.1091 11.8082C63.9261 11.7504 63.4028 11.2556 63.1725 10.9226C62.9855 10.6523 62.9853 10.6509 63.1336 10.692C63.2157 10.7148 63.4781 10.7644 63.7168 10.8024C64.3504 10.9031 64.756 10.7832 65.595 10.247C66.4568 9.69617 66.9015 9.47668 67.6823 9.21665C68.7907 8.84754 69.6734 8.93434 70.2237 9.46655C70.3747 9.61258 70.5841 9.90145 70.6891 10.1085C70.8123 10.3513 70.9183 10.485 70.9877 10.4852C71.1957 10.4856 71.5052 10.7335 71.6246 10.9953C71.7392 11.2466 71.8013 12.1374 71.7105 12.2278C71.6908 12.2474 71.5314 12.1895 71.3564 12.0992C71.0865 11.96 70.9624 11.9355 70.5397 11.9384C70.1267 11.9416 69.9871 11.9696 69.7255 12.1041C69.1915 12.3789 68.5221 13.2283 68.5221 13.6312C68.5221 13.745 68.5626 13.7553 69.0097 13.7553C70.2499 13.7553 71.0728 14.1727 71.8432 15.1927C72.3497 15.8632 72.6933 16.6451 72.9873 17.7962C73.0825 18.1691 73.2018 18.5002 73.2524 18.5319C73.3867 18.6162 73.9819 18.3083 74.3038 17.988C74.841 17.4534 75.1306 16.5698 75.0742 15.6373C75.0255 14.831 74.7659 14.1679 74.2487 13.529C74.1342 13.3875 74.0405 13.2481 74.0405 13.2192C74.0405 13.1218 75.1847 12.0443 75.5286 11.818C77.433 10.5644 80.0215 11.0454 81.8523 12.9931C83.7651 15.028 85.1397 18.0671 85.5463 21.1599C85.6478 21.9322 85.7039 24.1352 85.6241 24.2149C85.5507 24.2883 84.8359 23.8664 84.6077 23.615C84.3034 23.2799 84.1915 23.3191 84.1274 23.7832C84.0605 24.2676 84.1196 25.6771 84.2419 26.5125C84.3559 27.2911 84.6584 28.6347 85.0792 30.2306C85.4485 31.6311 85.687 32.3459 86.0725 33.2078C86.2356 33.5727 86.3399 33.8712 86.3041 33.8712C86.1781 33.8712 85.0402 33.3488 84.5321 33.0577C83.0855 32.2289 81.3989 30.9443 80.2471 29.7939C79.1593 28.7075 77.981 26.9478 77.1407 25.1546C76.9173 24.678 76.8352 24.5587 76.7291 24.5564C76.6266 24.5543 76.5875 24.6012 76.5571 24.7624C76.4887 25.1254 76.5175 26.5361 76.6058 27.1453C76.6525 27.4677 76.6802 27.7432 76.6674 27.7575C76.6087 27.823 75.9405 27.6094 75.4244 27.36C74.7901 27.0536 74.2332 26.5876 73.9189 26.1001C73.8121 25.9344 73.6861 25.7841 73.6391 25.7661C73.4523 25.6947 73.43 25.8721 73.4887 26.9605C73.6618 30.1716 73.1357 32.8893 71.8403 35.4755C71.4581 36.2385 71.372 36.5599 71.3563 37.2819C71.3426 37.9146 71.3605 37.9403 71.9219 38.0895C73.1097 38.4052 73.9785 39.0889 73.9785 39.7079C73.9785 39.8535 73.9574 39.9857 73.9316 40.0015C73.9059 40.0174 73.7315 39.966 73.5441 39.8874L73.5441 39.8874Z" fill="#8F8F8F"/>
</svg>
