<svg width="43" height="50" viewBox="0 0 43 50" fill="none" xmlns="http://www.w3.org/2000/svg">
<rect width="43" height="50" rx="8" fill="#FED3BD"/>
<path d="M29.4544 21.3067H24.8274L29.4544 34H36L29.4544 21.3067Z" fill="#FD7B38"/>
<path d="M28.9479 19.8522C29.0809 19.5444 29.1363 19.2085 29.1091 18.8741C29.082 18.5398 28.9731 18.2173 28.7922 17.9353C28.6113 17.6532 28.3639 17.4204 28.072 17.2573C27.78 17.0942 27.4526 17.0059 27.1185 17.0003C26.7845 16.9947 26.4543 17.0718 26.1571 17.225C25.8598 17.3782 25.6048 17.6026 25.4146 17.8783C25.2244 18.1541 25.1048 18.4727 25.0665 18.806C25.0282 19.1393 25.0723 19.4769 25.1949 19.7889L27.0845 19.04L28.9479 19.8522Z" fill="#FD7B38"/>
<path d="M15.1827 17.68L12.922 25.8768H12.4099L11.049 21.3876L7 22.5342L10.3617 34H14.8085L17.6383 23.5641H18.4738L21.3036 34H25.7504L29.472 21.3067H24.8512L23.4866 25.8768H22.9745L20.6764 17.68H15.1827Z" fill="#FD7B38"/>
</svg>
