<svg width="357" height="85" viewBox="0 0 357 85" fill="none" xmlns="http://www.w3.org/2000/svg">
<path d="M121.531 28.9252H115.854V58.1287H121.531V28.9252Z" fill="#8F8F8F"/>
<path d="M143.502 47.7672C143.502 51.7977 140.909 53.6086 137.455 53.6086C134.002 53.6086 131.694 51.7977 131.694 47.9715V37.5641H126.017V49.2892C126.017 55.1271 129.678 58.541 135.767 58.541C139.594 58.541 141.733 57.1318 143.167 55.5393H143.499L143.992 58.1324H149.214V37.5641H143.502V47.7672Z" fill="#8F8F8F"/>
<path d="M199.188 54.0596C195.034 54.0596 192.69 52.1676 192.32 49.4125H210.337C210.42 48.8396 210.462 48.2615 210.461 47.6826C210.422 40.284 204.823 37.1519 198.832 37.1519C191.88 37.1519 186.654 41.3092 186.654 48.0138C186.654 54.3872 191.675 58.541 199.202 58.541C205.499 58.541 209.692 55.7472 210.559 51.4665H204.949C204.248 53.1541 202.233 54.0596 199.188 54.0596ZM198.836 41.6369C202.458 41.6369 204.555 43.2399 204.886 45.5123H192.444C192.976 43.335 195.076 41.6369 198.818 41.6369H198.836Z" fill="#8F8F8F"/>
<path d="M220.105 40.5165H219.753L219.217 37.5535H214.058V58.1323H219.735V49.2891C219.735 45.2974 222.036 43.0778 226.318 43.0778C227.095 43.067 227.872 43.1355 228.636 43.2821V37.564H227.843C224.059 37.564 221.708 38.3462 220.105 40.5165Z" fill="#8F8F8F"/>
<path d="M256.509 51.7131H256.182L251.326 38.8395H245.483L240.712 51.6744H240.342L235.818 37.5641H230.18L237.132 58.1324H243.306L248.243 45.0085H248.57L253.426 58.1324H259.638L266.591 37.5641H260.953L256.509 51.7131Z" fill="#8F8F8F"/>
<path d="M289.185 52.143V45.2587C289.185 39.6639 284.453 37.1554 278.568 37.1554C272.317 37.1554 268.409 40.1184 267.873 44.5541H273.55C273.962 42.6198 275.608 41.5523 278.568 41.5523C281.528 41.5523 283.501 42.6621 283.501 44.924V45.4489L274.244 46.1536C269.967 46.4848 266.844 48.3767 266.844 52.4072C266.844 56.561 270.425 58.534 275.689 58.534C279.939 58.534 282.529 57.3502 284.114 55.564H284.396C285.288 57.5722 287.096 58.1253 289.062 58.1253H291.447V53.9363H290.912C289.717 53.9363 289.185 53.362 289.185 52.143ZM283.505 49.9621C283.505 53.214 279.629 54.2815 276.306 54.2815C274.044 54.2815 272.564 53.7073 272.564 52.143C272.564 50.7337 273.839 50.0467 275.735 49.8811L283.508 49.3068L283.505 49.9621Z" fill="#8F8F8F"/>
<path d="M310.173 37.5641L303.548 52.4565H303.178L296.472 37.5641H290.341L299.925 58.1324H306.716L316.258 37.5641H310.173Z" fill="#8F8F8F"/>
<path d="M334.406 51.4665C333.701 53.1541 331.689 54.0596 328.644 54.0596C324.49 54.0596 322.146 52.1676 321.776 49.4125H339.793C339.877 48.8396 339.918 48.2615 339.917 47.6826C339.878 40.284 334.279 37.1519 328.288 37.1519C321.336 37.1519 316.114 41.3092 316.114 48.0138C316.114 54.3872 321.132 58.541 328.658 58.541C334.955 58.541 339.149 55.7472 340.015 51.4665H334.406ZM328.274 41.6369C331.897 41.6369 333.993 43.2399 334.325 45.5123H321.886C322.425 43.335 324.518 41.6369 328.26 41.6369H328.274Z" fill="#8F8F8F"/>
<path d="M106.629 36.0491C106.629 34.2381 107.905 33.4595 109.55 33.4595C110.316 33.4666 111.077 33.5768 111.813 33.7872L112.761 29.6721C111.386 29.1863 109.94 28.9362 108.483 28.9323C104.286 28.9323 100.914 31.1554 100.914 35.7602V37.564H96.0156V42.0702H100.914V58.1323H106.629V42.0666H113.028V37.564H106.629V36.0491Z" fill="#8F8F8F"/>
<path d="M161.741 31.7649H156.455L156.159 37.564H151.691V42.0702H156.054V52.2099C156.054 55.6626 157.815 58.5516 163.101 58.5516C164.471 58.5516 165.838 58.4003 167.175 58.1006V53.7706C166.404 53.9434 165.618 54.0402 164.828 54.0595C161.991 54.0595 161.744 52.4565 161.744 51.2198V42.0596H167.382V37.564H161.741V31.7649Z" fill="#8F8F8F"/>
<path d="M179.568 31.7649H174.3L174.004 37.564H169.525V42.0702H173.887V52.2099C173.887 55.6626 175.649 58.5516 180.935 58.5516C182.302 58.5473 183.665 58.3925 184.998 58.09V53.7706C184.227 53.9434 183.441 54.0402 182.651 54.0595C179.814 54.0595 179.568 52.4565 179.568 51.2198V42.0596H185.223V37.564H179.568V31.7649Z" fill="#8F8F8F"/>
<path d="M16.9951 28.1465C16.9951 24.8453 17.9606 22.0268 19.9868 20.001L23.5106 23.5241C19.5886 27.4313 23.0137 39.5792 34.1805 50.7547C45.3474 61.9302 57.5044 65.3512 61.4228 61.437L64.9466 64.9602C58.336 71.5696 43.2789 66.8803 30.6744 54.2744C21.9319 45.5299 16.9951 35.6086 16.9951 28.1465Z" fill="#8F8F8F"/>
<path d="M39.2159 67.9972C35.9141 67.9972 33.0951 67.0319 31.0654 65.006L34.5892 61.4829C38.5041 65.3971 50.6541 61.9726 61.8314 50.8006C73.0088 39.6286 76.4269 27.4807 72.512 23.5665L76.0358 20.0433C82.6499 26.6528 77.9562 41.7073 65.3482 54.3097C56.6022 63.0648 46.6792 67.9972 39.2159 67.9972Z" fill="#8F8F8F"/>
<path d="M66.5147 49.268C64.3758 43.1095 60.0063 36.5283 54.2097 30.7362C41.6052 18.1303 26.5481 13.4374 19.9376 20.0504C19.4689 20.5225 19.8741 21.6887 20.8467 22.6611C21.8192 23.6335 22.9856 24.0351 23.4543 23.5665C27.3727 19.6523 39.5227 23.0768 50.6965 34.2523C55.9822 39.537 59.9217 45.4384 61.8211 50.8993C63.4843 55.6873 63.3222 59.5487 61.3841 61.4864C60.9119 61.955 61.3207 63.1247 62.2897 64.0935C63.2588 65.0624 64.4286 65.4711 64.9008 64.999C68.2872 61.6132 68.8615 56.0184 66.5147 49.268Z" fill="#8F8F8F"/>
<path d="M76.0288 20.0504C72.6354 16.6576 67.0467 16.0833 60.2881 18.4333C54.1321 20.5683 47.5462 24.9406 41.7531 30.7327C29.1486 43.3351 24.4549 58.3896 31.0655 65.0025C31.5377 65.4711 32.7041 65.066 33.6766 64.0971C34.6492 63.1282 35.0544 61.9585 34.5822 61.4864C30.6567 57.5722 34.0924 45.4243 45.2698 34.2488C50.5555 28.964 56.4578 25.0251 61.9196 23.1261C66.7084 21.4667 70.5705 21.6253 72.5121 23.563C72.9807 24.0316 74.1506 23.6264 75.1196 22.654C76.0887 21.6816 76.4974 20.519 76.0288 20.0504Z" fill="#8F8F8F"/>
</svg>
