<svg width="211" height="71" viewBox="0 0 211 71" fill="none" xmlns="http://www.w3.org/2000/svg">
<g clip-path="url(#clip0_107_189)">
<path d="M51.9291 25.2523H27.3329V32.6219H44.7769C43.9151 42.9562 35.4 47.3633 27.3624 47.3633C17.0791 47.3633 8.10571 39.1937 8.10571 27.743C8.10571 16.5883 16.6597 7.9977 27.385 7.9977C35.6598 7.9977 40.5358 13.324 40.5358 13.324L45.6462 7.98044C45.6462 7.98044 39.0868 0.607178 27.1238 0.607178C11.8902 0.606965 0.105225 13.589 0.105225 27.6114C0.105225 41.3517 11.191 54.7498 27.512 54.7498C41.8666 54.7498 52.3741 44.8208 52.3741 30.1382C52.3741 27.0406 51.9289 25.2503 51.9289 25.2503L51.9291 25.2523Z" fill="#8F8F8F"/>
<path d="M72.0776 19.9152C61.9851 19.9152 54.7522 27.8822 54.7522 37.174C54.7522 46.6032 61.7677 54.7183 72.1962 54.7183C81.6368 54.7183 89.371 47.4326 89.371 37.3766C89.371 25.851 80.3743 19.9152 72.0776 19.9152ZM72.178 26.7505C77.1412 26.7505 81.8444 30.8021 81.8444 37.3306C81.8444 43.7206 77.1612 47.8877 72.1553 47.8877C66.6549 47.8877 62.3157 43.4396 62.3157 37.2799C62.3157 31.2522 66.6011 26.7505 72.1778 26.7505H72.178Z" fill="#8F8F8F"/>
<path d="M109.758 19.9152C99.6655 19.9152 92.4326 27.8822 92.4326 37.174C92.4326 46.6032 99.4482 54.7183 109.877 54.7183C119.317 54.7183 127.051 47.4326 127.051 37.3766C127.051 25.851 118.055 19.9152 109.758 19.9152ZM109.858 26.7505C114.822 26.7505 119.525 30.8021 119.525 37.3306C119.525 43.7206 114.842 47.8877 109.836 47.8877C104.335 47.8877 99.9961 43.4396 99.9961 37.2799C99.9961 31.2522 104.282 26.7505 109.858 26.7505H109.858Z" fill="#8F8F8F"/>
<path d="M146.717 19.9335C137.453 19.9335 130.171 28.1259 130.171 37.3212C130.171 47.7954 138.613 54.7413 146.557 54.7413C151.469 54.7413 154.081 52.7727 156.009 50.5129V53.9443C156.009 59.9481 152.399 63.5433 146.949 63.5433C141.685 63.5433 139.045 59.591 138.127 57.3482L131.504 60.1441C133.853 65.1608 138.584 70.3924 147.004 70.3924C156.215 70.3924 163.235 64.5346 163.235 52.2492V20.9798H156.009V23.9275C153.787 21.51 150.749 19.9339 146.717 19.9339V19.9335ZM147.387 26.7549C151.929 26.7549 156.593 30.6708 156.593 37.3581C156.593 44.1552 151.939 47.9013 147.287 47.9013C142.348 47.9013 137.753 43.8523 137.753 37.4226C137.753 30.7418 142.525 26.7549 147.387 26.7549H147.387Z" fill="#8F8F8F"/>
<path d="M195.363 19.8918C186.624 19.8918 179.287 26.9119 179.287 37.2704C179.287 48.2312 187.465 54.7318 196.202 54.7318C203.494 54.7318 207.969 50.7039 210.64 47.095L204.682 43.0925C203.136 45.5151 200.552 47.8827 196.239 47.8827C191.394 47.8827 189.166 45.2038 187.786 42.6088L210.895 32.9269L209.695 30.0895C207.462 24.5332 202.255 19.8929 195.364 19.8929L195.363 19.8918ZM195.664 26.5844C198.813 26.5844 201.079 28.2748 202.041 30.3015L186.609 36.8145C185.944 31.7722 190.675 26.5844 195.664 26.5844Z" fill="#8F8F8F"/>
<path d="M168.271 53.6989H175.861V2.40686H168.271V53.6989Z" fill="#8F8F8F"/>
</g>
<defs>
<clipPath id="clip0_107_189">
<rect width="211" height="70" fill="white" transform="translate(0 0.5)"/>
</clipPath>
</defs>
</svg>
