<svg width="93" height="93" viewBox="0 0 93 93" fill="none" xmlns="http://www.w3.org/2000/svg">
<path d="M26.7956 15.6163C19.1696 15.6163 12.524 20.5763 7.9205 27.6792C2.728 35.6811 0 46.0467 0 55.9899C0 58.7257 0.27125 61.2948 0.81375 63.6353C1.0801 64.7681 1.42319 65.8815 1.84062 66.9678C2.24039 67.9875 2.72113 68.9736 3.27825 69.9167C5.97525 74.4078 10.323 77.3838 17.2011 77.3838C23.002 77.3838 27.404 74.7837 32.5655 67.9133C35.5105 63.9918 36.9985 61.6125 42.8846 51.1733L45.8141 45.9847L46.5349 44.7253C46.7712 45.1128 47.0037 45.4848 47.244 45.8878L55.583 59.8184C58.3885 64.5072 62.0349 69.7229 65.1542 72.6602C69.2075 76.4848 72.8733 77.3877 77.0117 77.3877C81.1774 77.3877 84.2812 76.0121 86.5249 74.1211C87.7776 73.0516 88.8391 71.7766 89.6636 70.3507C91.7639 66.7121 93 62.1086 93 55.8388C93 45.2988 90.3611 35.0804 84.9245 26.9701C79.9567 19.5611 73.4661 15.6163 66.65 15.6163C62.5929 15.6163 58.559 17.4259 54.8196 20.6848C52.2931 22.8936 49.9487 25.6836 47.7671 28.6286C45.0934 25.2379 42.594 22.6339 40.1799 20.6616C35.5996 16.9183 31.2092 15.6124 26.7956 15.6124V15.6163ZM66.1656 23.5717C70.6103 23.5717 74.6441 26.5089 77.7596 31.3178C82.1461 38.0913 84.1418 47.5734 84.1418 56.1178C84.1418 62.1163 82.7158 67.3553 77.0156 67.3553C74.7681 67.3553 73.036 66.4641 70.5676 63.4648C68.6456 61.1359 65.3635 56.1876 59.5936 46.5776L57.2028 42.594C55.6487 39.9947 54.0272 37.4363 52.3396 34.9216C52.6109 34.4992 52.886 34.0536 53.1573 33.6544C57.4973 27.1948 61.3645 23.5717 66.1695 23.5717H66.1656ZM26.6368 25.7146C31.5386 25.7146 34.6115 28.7797 37.0024 31.3178C38.192 32.5849 39.8582 34.6929 41.7841 37.4364L37.8316 43.5047C34.8982 48.0113 30.5389 55.1955 26.8383 60.3144C22.2231 66.7043 19.8245 67.3553 17.205 67.3553C15.1745 67.3553 13.1827 66.4369 11.8459 64.2785C10.8267 62.6278 10.0479 59.8998 10.0479 56.3503C10.0479 47.7439 12.4891 38.7772 16.4804 32.7593C18.2396 30.0972 20.2159 28.0086 22.4207 26.8189C23.7108 26.102 25.1609 25.7222 26.6368 25.7146Z" fill="#8F8F8F"/>
</svg>
