<svg width="59" height="59" viewBox="0 0 59 59" fill="none" xmlns="http://www.w3.org/2000/svg">
<g clip-path="url(#clip0_107_229)">
<path d="M52.8702 0.5H3.06492C1.37917 0.5 0 1.88092 0 3.5688V9.09257C0 10.7805 1.37917 12.1614 3.06492 12.1614H52.7169C54.4026 12.1614 55.7818 10.7805 55.7818 9.09257V3.5688C55.9351 1.88092 54.5558 0.5 52.8702 0.5ZM52.8702 31.3413H3.06492C1.37917 31.3413 0 32.7222 0 34.4101V39.9338C0 41.6217 1.37917 43.0026 3.06492 43.0026H52.7169C54.4026 43.0026 55.7818 41.6217 55.7818 39.9338V34.4101C55.9351 32.7222 54.5558 31.3413 52.8702 31.3413ZM31.1091 46.8386H3.06492C1.37917 46.8386 0 48.2195 0 49.9074V55.4312C0 57.1191 1.37917 58.5 3.06492 58.5H31.1091C32.7948 58.5 34.174 57.1191 34.174 55.4312V49.9074C34.174 48.2195 32.7948 46.8386 31.1091 46.8386ZM55.9351 15.9974H3.06492C1.37917 15.9974 0 17.3783 0 19.0661V24.5899C0 26.2777 1.37917 27.6587 3.06492 27.6587H55.9351C57.6208 27.6587 59 26.2777 59 24.5899V19.0661C59 17.3783 57.6208 15.9974 55.9351 15.9974Z" fill="#8F8F8F"/>
</g>
<defs>
<clipPath id="clip0_107_229">
<rect width="59" height="58" fill="white" transform="translate(0 0.5)"/>
</clipPath>
</defs>
</svg>
