<svg width="20" height="21" viewBox="0 0 20 21" fill="none" xmlns="http://www.w3.org/2000/svg">
<g clip-path="url(#clip0_320_262)">
<path d="M4.25854 13.1123C4.25854 14.2576 3.32448 15.1931 2.17901 15.1931C1.0337 15.1931 0.0983887 14.2576 0.0983887 13.1123C0.0983887 11.967 1.03386 11.0316 2.17917 11.0316H4.2587L4.25854 13.1123ZM5.30683 13.1123C5.30683 11.967 6.24229 11.0316 7.38761 11.0316C8.53292 11.0316 9.46839 11.9669 9.46839 13.1123V18.3209C9.46839 19.4662 8.53308 20.4017 7.38761 20.4017C6.24229 20.4017 5.30683 19.4662 5.30683 18.3209V13.1123Z" fill="#DE1C59"/>
<path d="M7.38761 4.75861C6.24229 4.75861 5.30683 3.82454 5.30683 2.67907C5.30683 1.53376 6.24229 0.59845 7.38761 0.59845C8.53292 0.59845 9.46839 1.53392 9.46839 2.67923V4.75876L7.38761 4.75861ZM7.38761 5.80689C8.53292 5.80689 9.46839 6.74236 9.46839 7.88767C9.46839 9.03298 8.53308 9.96845 7.38761 9.96845H2.17901C1.0337 9.96845 0.0983887 9.03314 0.0983887 7.88767C0.0983887 6.74236 1.03386 5.80689 2.17917 5.80689H7.38761Z" fill="#35C5F0"/>
<path d="M15.7413 7.88767C15.7413 6.74236 16.6754 5.80689 17.8209 5.80689C18.9662 5.80689 19.9017 6.74236 19.9017 7.88767C19.9017 9.03298 18.9662 9.96845 17.8209 9.96845H15.7413V7.88767ZM14.6931 7.88767C14.6931 9.03298 13.7576 9.96845 12.6123 9.96845C11.467 9.96845 10.5315 9.03314 10.5315 7.88767V2.67907C10.5315 1.53376 11.4668 0.59845 12.6123 0.59845C13.7576 0.59845 14.6931 1.53392 14.6931 2.67923V7.88767Z" fill="#2EB57D"/>
<path d="M12.6123 16.2414C13.7576 16.2414 14.6931 17.1755 14.6931 18.3209C14.6931 19.4662 13.7576 20.4017 12.6123 20.4017C11.467 20.4017 10.5315 19.4662 10.5315 18.3209V16.2414H12.6123ZM12.6123 15.1931C11.467 15.1931 10.5315 14.2576 10.5315 13.1123C10.5315 11.967 11.4668 11.0316 12.6123 11.0316H17.8209C18.9662 11.0316 19.9017 11.9669 19.9017 13.1123C19.9017 14.2576 18.9662 15.1931 17.8209 15.1931H12.6123Z" fill="#EBB02E"/>
</g>
<defs>
<clipPath id="clip0_320_262">
<rect width="20" height="20" fill="white" transform="translate(0 0.5)"/>
</clipPath>
</defs>
</svg>
