<svg width="147" height="31" viewBox="0 0 147 31" fill="none" xmlns="http://www.w3.org/2000/svg">
<path d="M5.22969 30L0.269688 2.4H5.50969L9.02969 20.6H9.90969L18.1497 2.4H22.5097L25.7497 20.6H26.5897L35.1497 2.4H40.7097L27.9897 30H22.3897L19.5897 13.28H18.3497L10.8297 30H5.22969ZM54.3566 27.44C51.9832 29.4667 49.2232 30.48 46.0766 30.48C42.9299 30.48 40.4499 29.4667 38.6366 27.44C36.8499 25.3867 36.1699 22.84 36.5966 19.8C37.0232 16.76 38.4232 14.2267 40.7966 12.2C43.1966 10.1467 45.9699 9.12 49.1166 9.12C52.2632 9.12 54.7299 10.1467 56.5166 12.2C58.3299 14.2267 59.0232 16.76 58.5966 19.8C58.1699 22.84 56.7566 25.3867 54.3566 27.44ZM42.6366 23.28C43.7032 24.1867 45.1299 24.64 46.9166 24.64C48.7032 24.64 50.2499 24.1867 51.5566 23.28C52.8899 22.3467 53.6499 21.1867 53.8366 19.8C54.0499 18.4133 53.6232 17.2667 52.5566 16.36C51.4899 15.4267 50.0632 14.96 48.2766 14.96C46.4899 14.96 44.9299 15.4267 43.5966 16.36C42.2899 17.2667 41.5299 18.4133 41.3166 19.8C41.1299 21.1867 41.5699 22.3467 42.6366 23.28ZM67.3344 14.64C69.5744 11.0667 72.3077 9.28 75.5344 9.28L74.5344 16.48C72.1344 16.48 70.2277 16.9067 68.8144 17.76C67.4277 18.6133 66.6277 19.8267 66.4144 21.4V21.36L65.1744 30H60.6144L63.4944 9.6H68.0544L67.3344 14.64ZM98.4934 9.6L88.3734 18.88L95.8534 30H89.9334L84.2934 22.08L81.0134 24.24L80.2134 30H75.6534L79.6934 1.2H84.2534L82.0934 16.6H82.9734L90.8534 9.6H98.4934Z" fill="#FD7B38"/>
<path d="M108.241 8.64L108.121 9.6H113.601L112.801 15.32H107.321L105.241 30H100.681L102.761 15.32H98.6009L99.4009 9.6H103.561L103.881 7.2C104.494 2.93333 107.014 0.799999 111.441 0.799999H114.801L114.001 6.52H111.121C109.388 6.52 108.428 7.22667 108.241 8.64ZM118.041 1.2H122.601L118.561 30H114.001L118.041 1.2ZM141.193 27.44C138.819 29.4667 136.059 30.48 132.913 30.48C129.766 30.48 127.286 29.4667 125.473 27.44C123.686 25.3867 123.006 22.84 123.433 19.8C123.859 16.76 125.259 14.2267 127.633 12.2C130.033 10.1467 132.806 9.12 135.953 9.12C139.099 9.12 141.566 10.1467 143.353 12.2C145.166 14.2267 145.859 16.76 145.433 19.8C145.006 22.84 143.593 25.3867 141.193 27.44ZM129.473 23.28C130.539 24.1867 131.966 24.64 133.753 24.64C135.539 24.64 137.086 24.1867 138.393 23.28C139.726 22.3467 140.486 21.1867 140.673 19.8C140.886 18.4133 140.459 17.2667 139.393 16.36C138.326 15.4267 136.899 14.96 135.113 14.96C133.326 14.96 131.766 15.4267 130.433 16.36C129.126 17.2667 128.366 18.4133 128.153 19.8C127.966 21.1867 128.406 22.3467 129.473 23.28Z" fill="#1E1E1E"/>
</svg>
